<svg width="2980" height="1116" viewBox="0 0 2980 1116" fill="none" xmlns="http://www.w3.org/2000/svg">
<path d="M2810.23 221.716C2807.25 221.716 2807.25 219.499 2810.23 219.499C2827.52 219.499 2830.2 217.281 2832.58 177.373C2834.07 155.518 2833.77 113.392 2833.77 84.2519C2833.77 6.33463 2831.09 5.06768 2816.49 5.06768H2811.13C2808.74 5.06768 2808.74 2.21704 2811.13 2.21704C2819.47 2.21704 2839.73 3.16724 2844.2 3.16724C2848.37 3.16724 2938.36 2.21704 2949.09 2.21704C2954.45 2.21704 2961.31 2.53377 2963.09 3.48399C2964.58 4.43419 2967.27 27.556 2971.74 61.7636L2972.93 73.1661C2973.52 75.3833 2970.54 75.0665 2969.95 73.1661L2968.46 61.7636C2962.8 26.289 2939.55 6.33463 2905.58 6.01788H2867.74C2854.04 6.01788 2856.42 6.33463 2856.42 84.2519V106.107H2881.15C2918.4 106.107 2926.44 91.5368 2926.44 69.682V63.0305C2926.44 60.4966 2929.42 60.4966 2929.42 63.0305C2929.42 72.2159 2927.93 103.256 2927.93 108.007C2927.93 112.441 2929.42 146.649 2929.42 151.4C2929.42 153.934 2926.44 153.934 2926.44 151.4V146.649C2926.44 124.794 2918.4 109.908 2881.15 109.908H2856.42V170.721C2856.42 195.11 2855.23 211.897 2854.04 217.281C2862.68 217.281 2901.12 218.232 2910.35 218.232C2944.92 218.232 2969.35 186.558 2973.23 154.251L2975.01 137.464C2975.31 135.563 2978.59 135.563 2978.29 137.78L2976.5 154.884C2971.14 206.512 2969.35 218.548 2967.27 220.449C2966.07 221.716 2948.2 221.716 2927.64 221.716C2906.78 221.716 2852.25 220.765 2852.25 220.765L2810.23 221.716Z" fill="#3395A0"/>
<path d="M2597.96 222.666C2594.99 222.666 2596.47 220.132 2597.96 217.598L2729.23 6.01788H2674.16C2639.93 6.33463 2615.23 26.289 2611.36 61.7636L2608.38 95.3377C2608.08 97.5548 2604.81 97.2381 2604.81 95.021L2608.08 61.7636C2610.76 27.556 2613.14 4.43419 2614.63 3.48399C2616.71 2.53377 2623.56 2.21704 2628.92 2.21704C2639.63 2.21704 2722.38 3.16724 2726.55 3.16724C2731.02 3.16724 2745.3 2.21704 2753.64 2.21704C2756.02 2.21704 2758.7 2.21705 2756.91 5.38442L2625.05 217.281C2635.47 217.281 2683.09 218.232 2692.02 218.232C2726.55 218.232 2749.77 186.558 2752.75 154.251L2754.83 122.894C2755.13 120.677 2758.1 120.993 2757.81 123.211L2756.02 154.884C2752.15 206.512 2750.66 218.548 2748.88 220.449C2747.69 221.716 2729.83 221.716 2709.29 221.716C2688.45 221.716 2627.13 220.766 2627.13 220.766L2597.96 222.666Z" fill="#3395A0"/>
<path d="M2379.95 221.716C2376.97 221.716 2376.97 219.499 2379.95 219.499C2397.23 219.499 2399.91 217.281 2402.29 177.373C2403.78 155.518 2403.49 113.392 2403.49 84.2519C2403.49 6.33463 2400.81 5.06768 2386.2 5.06768H2380.84C2378.46 5.06768 2378.46 2.21704 2380.84 2.21704C2389.18 2.21704 2409.45 3.16724 2413.92 3.16724C2418.09 3.16724 2508.08 2.21704 2518.8 2.21704C2524.17 2.21704 2531.02 2.53377 2532.81 3.48399C2534.3 4.43419 2536.98 27.556 2541.45 61.7636L2542.64 73.1661C2543.24 75.3833 2540.26 75.0665 2539.66 73.1661L2538.17 61.7636C2532.51 26.289 2509.27 6.33463 2475.3 6.01788H2437.46C2423.75 6.01788 2426.13 6.33463 2426.13 84.2519V106.107H2450.86C2488.11 106.107 2496.16 91.5368 2496.16 69.682V63.0305C2496.16 60.4966 2499.14 60.4966 2499.14 63.0305C2499.14 72.2159 2497.65 103.256 2497.65 108.007C2497.65 112.441 2499.14 146.649 2499.14 151.4C2499.14 153.934 2496.16 153.934 2496.16 151.4V146.649C2496.16 124.794 2488.11 109.908 2450.86 109.908H2426.13V170.721C2426.13 195.11 2424.94 211.897 2423.75 217.281C2432.39 217.281 2470.83 218.232 2480.07 218.232C2514.63 218.232 2539.07 186.558 2542.94 154.251L2544.73 137.464C2545.03 135.563 2548.3 135.563 2548 137.78L2546.22 154.884C2540.85 206.512 2539.07 218.548 2536.98 220.449C2535.79 221.716 2517.91 221.716 2497.35 221.716C2476.49 221.716 2421.96 220.765 2421.96 220.765L2379.95 221.716Z" fill="#3395A0"/>
<path d="M2161.87 221.716C2158.89 221.716 2158.89 219.499 2161.87 219.499C2179.16 219.499 2181.84 217.281 2184.22 177.373C2185.71 155.518 2185.41 113.392 2185.41 84.2519C2185.41 6.33463 2182.73 5.06768 2168.13 5.06768H2162.77C2160.38 5.06768 2160.38 2.21704 2162.77 2.21704C2171.11 2.21704 2191.37 3.16724 2195.84 3.16724C2200.01 3.16724 2290 2.21704 2300.73 2.21704C2306.09 2.21704 2312.95 2.53377 2314.73 3.48399C2316.22 4.43419 2318.91 27.556 2323.38 61.7636L2324.57 73.1661C2325.16 75.3833 2322.18 75.0665 2321.59 73.1661L2320.1 61.7636C2314.44 26.289 2291.19 6.33463 2257.23 6.01788H2219.38C2205.68 6.01788 2208.06 6.33463 2208.06 84.2519V106.107H2232.79C2270.04 106.107 2278.08 91.5368 2278.08 69.682V63.0305C2278.08 60.4966 2281.06 60.4966 2281.06 63.0305C2281.06 72.2159 2279.57 103.256 2279.57 108.007C2279.57 112.441 2281.06 146.649 2281.06 151.4C2281.06 153.934 2278.08 153.934 2278.08 151.4V146.649C2278.08 124.794 2270.04 109.908 2232.79 109.908H2208.06V170.721C2208.06 195.11 2206.87 211.897 2205.68 217.281C2214.32 217.281 2252.76 218.232 2261.99 218.232C2296.56 218.232 2320.99 186.558 2324.87 154.251L2326.65 137.464C2326.95 135.563 2330.23 135.563 2329.93 137.78L2328.14 154.884C2322.78 206.512 2320.99 218.548 2318.91 220.449C2317.71 221.716 2299.84 221.716 2279.28 221.716C2258.42 221.716 2203.89 220.765 2203.89 220.765L2161.87 221.716Z" fill="#3395A0"/>
<path d="M1946.48 221.716C1944.05 221.716 1944.05 218.865 1946.48 218.865C1954.08 218.865 1958.64 218.548 1960.46 218.232C1964.72 213.797 1965.93 206.829 1966.54 189.725C1967.15 172.305 1967.45 140.948 1967.45 126.378V84.2519C1967.45 6.33463 1965.93 5.06768 1951.04 5.06768H1945.57C1943.14 5.06768 1943.14 2.21704 1945.57 2.21704C1954.08 2.21704 1974.74 3.16724 1979.3 3.16724C1983.56 3.16724 2011.51 2.21704 2016.68 2.21704C2068.95 2.21704 2094.47 20.9045 2094.47 54.4786C2094.47 82.6682 2061.65 100.089 2029.75 105.473C2055.58 106.107 2066.21 115.926 2085.97 157.418C2111.19 213.164 2116.96 218.865 2135.5 218.865H2137.63C2140.36 218.865 2140.66 221.716 2137.63 221.716H2126.69C2116.05 221.716 2110.28 222.983 2105.72 222.983C2099.03 222.983 2095.08 221.082 2090.22 215.381C2083.84 207.779 2075.33 192.893 2065 167.554C2042.21 112.758 2033.39 108.324 2003.01 107.69H1990.55V139.681C1990.55 217.598 1992.07 218.865 2006.96 218.865H2013.03C2015.46 218.865 2015.46 221.716 2013.03 221.716C2004.52 221.716 1984.16 221.082 1979.91 221.082C1975.35 221.082 1948.91 221.716 1946.48 221.716ZM1990.55 52.8949V104.523C1996.62 104.206 2004.22 104.206 2016.07 104.206C2039.47 104.206 2067.43 89.9532 2067.43 54.1619C2067.43 21.2213 2052.23 5.06768 2014.25 5.06768H2002.4C1991.15 5.06768 1990.55 6.33463 1990.55 52.8949Z" fill="#3395A0"/>
<path d="M1732.54 221.716C1730.11 221.716 1730.11 218.865 1732.54 218.865H1738.01C1752.9 218.865 1754.42 217.598 1754.42 139.681V84.2519C1754.42 6.33463 1752.9 5.06768 1738.01 5.06768H1732.54C1730.11 5.06768 1730.11 2.21704 1732.54 2.21704C1741.05 2.21704 1761.72 3.16724 1766.27 3.16724C1770.53 3.16724 1811.25 2.21704 1816.72 2.21704C1867.77 2.21704 1896.64 14.8865 1896.64 53.8451C1896.64 85.5188 1870.81 101.672 1834.65 106.423C1873.55 109.591 1903.63 127.328 1903.63 161.852C1903.63 199.544 1880.23 221.716 1824.62 221.716C1819.15 221.716 1770.53 220.765 1766.27 220.765C1761.72 220.765 1741.05 221.716 1732.54 221.716ZM1790.28 6.01788C1775.39 6.01788 1778.43 6.33463 1778.43 84.2519V105.473H1813.07C1850.75 105.473 1870.81 91.5368 1870.81 53.5284C1870.81 15.52 1851.06 6.01788 1812.16 6.01788H1790.28ZM1794.23 218.865H1820.06C1860.48 218.865 1877.8 200.178 1877.8 161.852C1877.8 126.695 1860.78 108.957 1817.02 108.957H1778.43V139.681C1778.43 217.598 1779.34 218.865 1794.23 218.865Z" fill="#3395A0"/>
<path d="M1399.79 222.666C1396.75 222.666 1396.75 220.448 1399.79 220.448C1417.42 220.448 1420.15 218.231 1422.58 178.322C1424.1 156.468 1423.8 114.342 1423.8 85.2018C1423.8 7.28458 1421.07 6.01763 1406.18 6.01763H1400.71C1398.27 6.01763 1398.27 3.16699 1400.71 3.16699C1409.21 3.16699 1429.88 4.11719 1434.44 4.11719C1438.69 4.11719 1530.46 3.16699 1541.4 3.16699C1546.87 3.16699 1553.86 3.48372 1555.69 4.43394C1557.21 5.38414 1559.94 28.5059 1564.5 62.7135L1565.71 74.116C1566.32 76.3332 1563.28 76.0165 1562.67 74.116L1561.16 62.7135C1555.38 27.239 1531.68 7.28458 1497.04 6.96783H1458.44C1444.46 6.96783 1446.9 7.28458 1446.9 85.2018V107.057H1472.12C1510.1 107.057 1518.31 92.4868 1518.31 70.6319V63.9805C1518.31 61.4466 1521.35 61.4466 1521.35 63.9805C1521.35 73.1658 1519.83 104.206 1519.83 108.957C1519.83 113.391 1521.35 147.599 1521.35 152.35C1521.35 154.884 1518.31 154.884 1518.31 152.35V147.599C1518.31 125.744 1510.1 110.858 1472.12 110.858H1446.9V171.671C1446.9 196.06 1445.68 212.847 1444.46 218.231C1453.28 218.231 1492.48 219.182 1501.9 219.182C1537.15 219.182 1562.07 187.508 1566.02 155.201L1567.84 138.414C1568.14 136.513 1571.49 136.513 1571.18 138.73L1569.36 155.834C1563.89 207.462 1562.07 219.498 1559.94 221.399C1558.72 222.666 1540.49 222.666 1519.52 222.666C1498.25 222.666 1442.64 221.715 1442.64 221.715L1399.79 222.666Z" fill="#3395A0"/>
<path d="M1344.12 88.0528V89.003C1344.12 93.1206 1341.08 93.1206 1341.08 89.003V88.0528C1341.08 39.9088 1332.87 3.16736 1276.35 3.16736C1239.28 3.16736 1224.39 21.2214 1224.39 45.2934C1224.39 75.7001 1255.69 89.0031 1286.99 102.623C1318.59 116.559 1350.5 130.812 1350.5 165.02C1350.5 201.445 1320.72 225.833 1284.25 225.833C1251.43 225.833 1235.02 222.349 1213.45 216.331C1210.71 215.698 1210.41 215.064 1210.41 213.164C1210.41 198.594 1210.1 147.599 1210.1 132.079C1210.1 127.645 1213.45 127.645 1213.45 132.079C1213.45 190.992 1233.81 222.666 1284.25 222.666C1317.68 222.666 1332.27 204.929 1332.27 179.907C1332.27 148.866 1301.88 136.197 1270.88 122.577C1238.37 108.641 1205.24 93.7541 1205.24 60.18C1205.24 22.4883 1237.76 0 1276.35 0C1306.74 0 1325.28 4.11756 1342.6 8.23515C1344.72 8.86863 1345.64 9.18536 1345.94 11.7193C1346.55 18.054 1344.12 38.6419 1344.12 88.0528Z" fill="#3395A0"/>
<path d="M1098.54 85.2018C1098.54 7.28458 1097.02 6.01763 1082.13 6.01763H1075.75C1073.32 6.01763 1073.32 3.16699 1075.75 3.16699C1084.26 3.16699 1106.14 4.11719 1110.39 4.11719C1114.95 4.11719 1136.22 3.16699 1144.73 3.16699C1147.16 3.16699 1147.16 6.01763 1144.73 6.01763H1138.35C1123.46 6.01763 1121.94 7.28458 1121.94 85.2018V140.631C1121.94 218.548 1123.46 219.815 1138.35 219.815H1144.73C1147.16 219.815 1147.16 222.666 1144.73 222.666C1136.22 222.666 1114.95 221.715 1110.39 221.715C1106.14 221.715 1084.26 222.666 1075.75 222.666C1073.32 222.666 1073.32 219.815 1075.75 219.815H1082.13C1097.02 219.815 1098.54 218.548 1098.54 140.631V85.2018Z" fill="#3395A0"/>
<path d="M840.76 222.666C837.721 222.666 837.721 220.448 840.76 220.448C858.385 220.448 862.031 218.231 863.551 178.322C864.462 156.468 863.855 112.758 863.855 98.1881C863.855 83.6182 862.943 52.2612 862.943 34.8407C862.943 6.33436 862.335 6.01763 842.887 6.01763C840.456 6.01763 840.456 3.16699 842.887 3.16699C845.318 3.16699 875.402 3.80047 879.96 3.80047C884.519 3.80047 920.681 3.16699 929.493 3.16699C992.093 3.16699 1045.58 46.8767 1045.58 113.075C1045.58 178.006 996.044 222.666 930.709 222.666C921.896 222.666 893.939 221.715 883.607 221.715C866.286 221.715 852.003 222.349 840.76 222.666ZM1018.53 113.075C1018.53 47.8269 983.281 6.01763 928.886 6.01763H908.829C888.165 6.01763 887.861 7.60131 887.861 85.2018V171.671C887.861 196.06 886.646 212.847 885.43 218.231C892.724 218.231 917.642 219.498 931.317 219.498C986.32 219.498 1018.53 178.006 1018.53 113.075Z" fill="#3395A0"/>
<path d="M710.309 145.065C695.419 145.065 665.031 144.115 655.914 143.798L650.748 157.418C645.582 170.721 639.808 190.675 639.808 204.612C639.808 214.748 645.886 220.132 656.826 220.132C659.257 220.132 664.119 219.182 665.335 219.182C666.854 219.182 667.462 219.815 667.462 220.765C667.462 221.716 666.854 222.666 663.815 222.666C658.345 222.666 634.339 222.032 629.173 222.032C625.222 222.032 611.547 222.666 603.95 222.666C602.735 222.666 602.127 222.032 602.127 221.082C602.127 220.449 603.039 219.815 603.95 219.815H605.166C613.674 219.815 620.664 213.164 627.045 200.811C634.642 187.191 642.24 169.137 647.102 155.834L705.751 3.16725C706.055 2.53377 706.359 2.21704 707.878 2.21704H710.917C712.74 2.21704 713.652 2.53377 713.956 3.16725L769.263 140.631C799.347 214.747 803.905 219.815 818.492 219.815H820.923C822.442 219.815 823.05 220.449 823.05 221.082C823.05 222.032 822.442 222.666 821.227 222.666C812.414 222.666 795.093 221.716 790.534 221.716C785.976 221.716 762.577 222.666 753.765 222.666C751.333 222.666 750.422 219.815 752.853 219.815H759.234C772.605 219.815 774.732 214.114 745.864 144.115L710.309 145.065ZM744.344 140.631L699.066 30.0899L656.826 141.265L708.486 140.948H744.344V140.631Z" fill="#3395A0"/>
<path d="M398.896 222.666C396.465 222.666 396.465 219.815 398.896 219.815C406.493 219.815 411.051 219.498 412.875 219.182C417.129 214.747 418.345 207.779 418.952 190.675C419.56 173.255 419.864 141.898 419.864 127.328V85.2019C419.864 7.28458 418.345 6.01763 403.454 6.01763H397.984C395.553 6.01763 395.553 3.16699 397.984 3.16699C406.493 3.16699 427.157 4.11719 431.715 4.11719C435.97 4.11719 463.927 3.16699 469.093 3.16699C521.361 3.16699 546.887 21.8545 546.887 55.4286C546.887 83.6182 514.068 101.039 482.16 106.423C507.99 107.057 518.626 116.876 538.378 158.368C563.601 214.114 569.374 219.815 587.911 219.815H590.038C592.773 219.815 593.077 222.666 590.038 222.666H579.099C568.463 222.666 562.689 223.933 558.131 223.933C551.445 223.933 547.495 222.032 542.633 216.331C536.251 208.729 527.742 193.843 517.41 168.504C494.619 113.708 485.807 109.274 455.418 108.64H442.959V140.631C442.959 218.548 444.478 219.815 459.369 219.815H465.446C467.877 219.815 467.877 222.666 465.446 222.666C456.938 222.666 436.578 222.032 432.323 222.032C427.765 222.032 401.327 222.666 398.896 222.666ZM442.959 53.8449V105.473C449.037 105.156 456.634 105.156 468.485 105.156C491.884 105.156 519.841 90.9031 519.841 55.1118C519.841 22.1712 504.647 6.01763 466.662 6.01763H454.811C443.567 6.01763 442.959 7.28458 442.959 53.8449Z" fill="#3395A0"/>
<path d="M271.368 145.065C256.478 145.065 226.089 144.115 216.973 143.798L211.807 157.418C206.641 170.721 200.867 190.675 200.867 204.612C200.867 214.748 206.945 220.132 217.884 220.132C220.316 220.132 225.178 219.182 226.393 219.182C227.913 219.182 228.52 219.815 228.52 220.765C228.52 221.716 227.913 222.666 224.874 222.666C219.404 222.666 195.397 222.032 190.231 222.032C186.281 222.032 172.606 222.666 165.009 222.666C163.793 222.666 163.186 222.032 163.186 221.082C163.186 220.449 164.097 219.815 165.009 219.815H166.224C174.733 219.815 181.722 213.164 188.104 200.811C195.701 187.191 203.298 169.137 208.16 155.834L266.81 3.16725C267.114 2.53377 267.417 2.21704 268.937 2.21704H271.976C273.799 2.21704 274.711 2.53377 275.014 3.16725L330.321 140.631C360.406 214.747 364.964 219.815 379.55 219.815H381.981C383.501 219.815 384.108 220.449 384.108 221.082C384.108 222.032 383.501 222.666 382.285 222.666C373.473 222.666 356.151 221.716 351.593 221.716C347.035 221.716 323.636 222.666 314.823 222.666C312.392 222.666 311.48 219.815 313.911 219.815H320.293C333.664 219.815 335.791 214.114 306.922 144.115L271.368 145.065ZM305.403 140.631L260.124 30.0899L217.884 141.265L269.545 140.948H305.403V140.631Z" fill="#3395A0"/>
<path d="M4.42245 221.716C1.99138 221.716 1.99138 218.865 4.42245 218.865C10.804 218.865 15.3622 218.865 18.4011 218.232C22.6554 213.797 23.871 206.829 24.4787 189.725C25.0865 172.305 25.3904 140.948 25.3904 126.378V84.2519C25.3904 6.33463 23.871 5.06768 8.98069 5.06768H3.5108C1.07973 5.06768 1.07973 2.21704 3.5108 2.21704C12.0195 2.21704 32.6836 3.16724 37.2418 3.16724C41.4962 3.16724 86.167 2.21704 91.6368 2.21704C140.866 2.21704 171.862 23.7552 171.862 63.0305C171.862 101.989 139.65 128.278 93.4601 128.278C78.5699 127.962 63.3757 127.962 48.4855 127.962V139.364C48.4855 216.965 52.1321 218.865 62.768 218.865H78.266C80.6971 218.865 80.6971 221.716 78.266 221.716C69.4534 221.716 46.0544 221.082 41.4962 221.082C36.9379 221.082 6.85351 221.716 4.42245 221.716ZM60.3369 5.38441C49.0932 5.38441 48.4855 6.33463 48.4855 52.8949V124.794H86.7747C124.456 124.794 145.728 100.722 145.728 62.7138C145.728 24.3886 125.976 5.38441 87.0786 5.38441H60.3369Z" fill="#3395A0"/>
<path d="M761.093 453.157V389.075H787.084C799.722 389.075 808.236 395.887 808.236 407.269C808.236 416.5 803.844 421.609 796.764 423.402V423.581C811.014 426.359 805.816 451.544 809.132 452.62V453.157H800.439C797.66 450.469 803.755 427.256 787.532 427.256H769.159V453.157H761.093ZM769.159 396.245V420.086H785.202C791.834 420.086 800.17 419.279 800.17 408.165C800.17 397.052 791.834 396.245 785.202 396.245H769.159ZM854.556 416.411H887.448V423.581H854.556V445.987H892.826V453.157H846.489V389.075H891.751V396.245H854.556V416.411ZM930.923 389.075H938.99V445.987H972.599V453.157H930.923V389.075ZM1046.34 437.114H1018.1L1012.46 453.157H1004.12L1027.78 389.075H1036.75L1060.32 453.157H1051.98L1046.34 437.114ZM1020.79 429.944H1043.74L1032.35 396.514H1032.17L1020.79 429.944ZM1113.06 420.444L1092.71 389.075H1101.68L1117.45 414.708H1117.54L1133.4 389.075H1142.37L1122.02 420.265L1143.89 453.157H1134.03L1117.54 426.18H1117.45L1101.05 453.157H1091.19L1113.06 420.444Z" fill="#69443C"/>
<rect x="1239.16" y="373.407" width="7.7659" height="91.5018" fill="#69443C"/>
<path d="M1346 453.157V389.075H1371.46C1383.2 389.075 1392.25 394.273 1392.25 407.717C1392.25 421.161 1383.2 426.359 1371.46 426.359H1354.07V453.157H1346ZM1354.07 396.245V419.189H1372.35C1380.33 419.189 1384.19 415.515 1384.19 407.717C1384.19 399.92 1380.33 396.245 1372.35 396.245H1354.07ZM1428.69 389.075H1436.75V445.987H1470.36V453.157H1428.69V389.075ZM1544.1 437.114H1515.87L1510.22 453.157H1501.89L1525.55 389.075H1534.51L1558.08 453.157H1549.75L1544.1 437.114ZM1518.56 429.944H1541.5L1530.12 396.514H1529.94L1518.56 429.944ZM1581.86 389.075H1590.55L1609.1 420.444H1609.28L1627.92 389.075H1636.62L1613.23 426.897V453.157H1605.16V426.897L1581.86 389.075Z" fill="#69443C"/>
<rect x="1731.07" y="373.407" width="7.7659" height="91.5018" fill="#69443C"/>
<path d="M1837.92 453.157V389.075H1863.91C1876.55 389.075 1885.06 395.887 1885.06 407.269C1885.06 416.5 1880.67 421.609 1873.59 423.402V423.581C1887.84 426.359 1882.64 451.544 1885.96 452.62V453.157H1877.26C1874.48 450.469 1880.58 427.256 1864.36 427.256H1845.98V453.157H1837.92ZM1845.98 396.245V420.086H1862.03C1868.66 420.086 1876.99 419.279 1876.99 408.165C1876.99 397.052 1868.66 396.245 1862.03 396.245H1845.98ZM1931.38 416.411H1964.27V423.581H1931.38V445.987H1969.65V453.157H1923.31V389.075H1968.57V396.245H1931.38V416.411ZM2029.91 415.783C2044.34 419.369 2053.75 421.788 2053.75 436.397C2053.75 445.719 2046.85 454.412 2030.62 454.412C2015.48 454.412 2003.74 446.346 2002.84 431.647H2010.91C2011.8 440.431 2017.18 447.242 2030.62 447.242C2041.74 447.242 2045.68 442.133 2045.68 436.397C2045.68 427.614 2040.93 426.001 2026.59 422.685C2017 420.444 2005.53 417.128 2005.53 404.67C2005.53 394.542 2013.33 387.82 2027.49 387.82C2041.11 387.82 2050.61 394.811 2051.69 408.076H2043.62C2042.45 399.472 2037.61 394.99 2027.49 394.99C2018.43 394.99 2013.59 398.486 2013.59 403.774C2013.59 412.288 2020.5 413.453 2029.91 415.783ZM2099.72 416.411H2132.62V423.581H2099.72V445.987H2137.99V453.157H2091.66V389.075H2136.92V396.245H2099.72V416.411ZM2193.39 453.157V396.245H2172.06V389.075H2222.79V396.245H2201.45V453.157H2193.39Z" fill="#69443C"/>
<path d="M768.108 623.303L2211.89 622.823" stroke="#69443C" stroke-width="7.92844"/>
<g clip-path="url(#clip0_4140_3)">
<path d="M1356.73 1066.47C1352.64 1066.6 1348.68 1068.29 1345.71 1071.26V1050.96H1333.7V1053.28L1336.67 1053.8V1100.36L1333.7 1100.88V1103.2H1345.71V1101.26C1348.31 1103.07 1351.28 1103.98 1354.37 1103.85C1364.77 1103.85 1370.72 1096.74 1370.72 1084.45C1370.59 1073.72 1364.77 1066.47 1356.73 1066.47ZM1353.26 1100.62C1350.41 1100.49 1347.81 1099.45 1345.58 1097.51V1074.36C1347.44 1073.33 1349.55 1072.68 1351.65 1072.55C1357.47 1072.55 1361.06 1077.86 1361.06 1086.26C1361.06 1095.18 1358.21 1100.62 1353.26 1100.62ZM1397.95 1067.12H1407.98V1069.71L1405.13 1070.23L1391.27 1105.4C1388.17 1113.42 1385.2 1120.14 1378.64 1120.14C1376.66 1120.14 1374.8 1119.89 1372.82 1119.5V1111.61H1374.8L1376.16 1114.71C1377.03 1115.36 1378.02 1115.75 1379.01 1115.62C1383.1 1115.62 1385.82 1109.15 1387.55 1104.88L1387.93 1103.98L1373.94 1070.23L1371.21 1069.58V1066.99H1386.56V1069.58L1383.59 1070.23L1392.63 1092.34L1401.05 1070.1L1397.95 1069.58V1067.12ZM1454.9 1052.51H1471.25V1055.09L1467.9 1055.61V1100.23L1471.25 1100.75V1103.33H1454.9V1100.75L1458.37 1100.23V1079.92H1437.45V1100.23L1440.67 1100.75V1103.33H1424.57V1100.75L1427.79 1100.23V1055.61L1424.57 1055.09V1052.64H1440.67V1055.22L1437.45 1055.74V1074.75H1458.37V1055.74L1454.9 1055.22V1052.51ZM1490.19 1100.36L1493.28 1100.88V1103.2H1478.3V1100.88L1481.4 1100.36V1069.84L1478.3 1069.32V1066.99H1490.31V1100.36H1490.19ZM1480.9 1056C1480.78 1053.93 1481.65 1052.12 1483.38 1050.96C1484.99 1049.92 1487.09 1049.79 1488.7 1050.83C1490.31 1051.86 1491.43 1053.67 1491.3 1055.74C1491.43 1057.29 1490.93 1058.72 1489.94 1059.88C1488.95 1061.04 1487.59 1061.69 1486.1 1061.69C1484.62 1061.69 1483.25 1061.17 1482.26 1060.01C1481.27 1058.97 1480.78 1057.42 1480.9 1056ZM1511.85 1100.36L1514.95 1100.88V1103.2H1499.97V1100.88L1502.94 1100.36V1053.8L1499.97 1053.28V1050.96H1511.98V1100.36H1511.85ZM1539.09 1099.19C1540.7 1099.32 1542.31 1099.19 1543.8 1098.81V1101.26C1540.2 1102.69 1536.49 1103.46 1532.78 1103.59C1525.84 1103.59 1524.23 1100.23 1524.23 1094.02V1070.48H1517.92V1067.12H1524.48V1059.62L1533.15 1056.9V1067.25H1541.2V1070.61H1533.15V1091.95C1533.15 1097.38 1534.26 1099.19 1539.09 1099.19ZM1563.73 1066.09C1558.78 1065.7 1553.82 1067.64 1550.36 1071.39C1546.77 1075.14 1545.03 1080.18 1545.28 1085.49C1544.54 1090.66 1546.15 1095.96 1549.74 1099.58C1553.33 1103.33 1558.28 1105.01 1563.23 1104.24C1568.18 1104.63 1573.01 1102.81 1576.48 1099.19C1580.07 1095.57 1581.93 1090.53 1581.68 1085.49C1582.3 1080.31 1580.56 1075.14 1577.1 1071.39C1573.51 1067.64 1568.68 1065.7 1563.73 1066.09ZM1563.36 1101.39C1558.28 1101.39 1555.06 1096.61 1555.06 1085.23C1555.06 1073.59 1558.28 1068.93 1563.36 1068.93C1568.56 1068.93 1571.77 1073.98 1571.77 1085.23C1571.77 1096.87 1568.8 1101.39 1563.36 1101.39ZM1621.3 1100.36L1624.39 1100.88V1103.2H1609.41V1100.88L1612.38 1100.36V1079.92C1612.38 1074.23 1610.4 1071.65 1606.32 1071.65C1603.72 1072.04 1601.24 1073.07 1599.26 1074.62V1100.36L1602.35 1100.88V1103.2H1587.25V1100.88L1590.35 1100.36V1070.1L1587.25 1069.58V1066.99H1599.26V1072.04C1602.6 1068.67 1607.06 1066.6 1611.64 1066.35C1618.33 1066.35 1621.42 1070.48 1621.42 1078.63L1621.3 1100.36ZM1646.55 1053.28V1062.21L1647.54 1062.34V1063.11H1643.33V1062.34L1644.32 1062.21V1054.19L1640.49 1063.11H1640.11L1636.52 1054.32V1062.21L1637.51 1062.34V1063.11H1634.54V1062.34L1635.53 1062.21V1053.15L1634.54 1052.9V1052.12H1638.26L1641.11 1059.1L1644.08 1052.12H1647.54V1052.9L1646.55 1053.28ZM1624.27 1052.38H1633.68V1054.58H1632.93L1632.69 1053.41H1630.09V1062.34L1631.2 1062.47V1063.24H1626.74V1062.47L1627.86 1062.34V1053.41H1625.26L1625.13 1054.58H1624.27V1052.38ZM1198.26 997.416L1202.59 1001.81C1196.77 1008.8 1188.23 1012.68 1179.32 1012.55C1171.52 1012.55 1163.96 1009.31 1158.39 1003.36C1152.82 997.416 1149.97 989.527 1150.22 981.25V981.121C1149.97 972.844 1152.95 964.826 1158.52 958.877C1164.09 952.928 1171.64 949.566 1179.56 949.695C1188.11 949.436 1196.28 952.928 1202.22 959.394L1197.76 964.438C1193.06 959.136 1186.5 956.161 1179.56 956.161C1173.37 956.29 1167.55 958.877 1163.22 963.662C1159.01 968.318 1156.78 974.655 1157.03 981.121V981.25C1156.78 987.716 1159.01 994.053 1163.22 998.838C1167.43 1003.62 1173.37 1006.34 1179.56 1006.47C1186.62 1006.08 1193.43 1002.98 1198.26 997.416ZM1283.93 980.862V980.991C1284.18 992.243 1278.48 1002.59 1269.32 1008.28C1260.16 1013.97 1248.65 1013.97 1239.48 1008.41C1230.2 1002.85 1224.63 992.372 1224.75 981.25V981.121C1224.5 969.87 1230.2 959.524 1239.36 953.833C1248.52 948.143 1260.04 948.143 1269.2 953.704C1278.36 959.265 1284.05 969.611 1283.93 980.862ZM1277.12 980.991C1277.37 974.396 1275.02 968.059 1270.81 963.403C1266.47 958.618 1260.53 956.032 1254.22 955.902C1248.03 955.902 1242.08 958.618 1237.75 963.274C1233.42 967.93 1231.19 974.267 1231.44 980.862V980.991C1231.19 987.587 1233.54 993.924 1237.75 998.58C1242.08 1003.36 1248.03 1005.95 1254.22 1006.08C1260.41 1006.08 1266.35 1003.36 1270.68 998.709C1275.02 994.053 1277.24 987.716 1277 981.121L1277.12 980.991ZM1317.6 950.6H1311.04V1011.38H1350.29V1005.05H1317.6V950.6ZM1383.84 950.6H1377.28V1011.38H1416.52V1005.05H1383.84V950.6ZM1450.2 983.837H1481.89V977.629H1450.08V956.937H1485.48V950.73H1443.51V1011.51H1485.98V1005.3H1450.08L1450.2 983.837ZM1540.82 1006.08C1534.63 1005.95 1528.81 1003.24 1524.48 998.45C1520.27 993.665 1518.04 987.458 1518.29 980.991V980.862C1518.04 974.396 1520.27 968.059 1524.48 963.403C1528.69 958.748 1534.63 956.032 1540.82 955.902C1547.76 955.902 1554.32 959.006 1559.02 964.179L1563.48 959.136C1557.54 952.669 1549.37 949.178 1540.82 949.436C1532.9 949.436 1525.35 952.799 1519.78 958.618C1514.21 964.438 1511.23 972.585 1511.48 980.862V980.991C1511.23 989.268 1514.21 997.157 1519.65 1003.11C1525.1 1009.05 1532.65 1012.29 1540.58 1012.29C1549.49 1012.42 1557.91 1008.54 1563.85 1001.55L1559.52 997.157C1554.69 1002.98 1547.88 1006.08 1540.82 1006.08ZM1586.01 956.937H1605.45V1011.38H1612.13V956.937H1631.57V950.6H1586.01V956.937ZM1659.43 1011.38H1665.99V950.6H1659.43V1011.38ZM1754.63 980.862V980.991C1754.63 992.113 1749.06 1002.33 1739.9 1007.89C1730.74 1013.45 1719.47 1013.45 1710.31 1008.02C1701.15 1002.46 1695.46 992.243 1695.46 981.25V981.121C1695.46 964.05 1708.58 950.083 1724.92 950.083C1741.26 949.824 1754.51 963.662 1754.63 980.862ZM1747.82 980.991C1748.07 974.396 1745.72 968.059 1741.51 963.403C1737.18 958.618 1731.23 956.032 1725.04 955.902C1718.85 955.902 1712.91 958.618 1708.58 963.274C1704.25 967.93 1702.02 974.267 1702.26 980.862V980.991C1702.02 987.587 1704.37 993.924 1708.58 998.58C1712.91 1003.36 1718.85 1005.95 1725.04 1006.08C1731.23 1006.08 1737.18 1003.36 1741.51 998.709C1745.84 994.053 1748.07 987.716 1747.82 981.121V980.991ZM1822.73 950.6V999.355L1786.2 950.6H1780.01V1011.38H1786.45V961.593L1823.96 1011.38H1829.16V950.6H1822.73ZM1258.55 881.153C1246.67 904.431 1223.27 918.657 1198.13 918.01C1150.35 918.01 1118.28 880.894 1118.28 829.035C1118.28 782.091 1146.38 747.302 1187.12 740.06C1163.84 747.82 1150.84 780.927 1150.84 829.035C1150.84 882.058 1171.52 912.579 1206.18 912.579C1227.72 912.708 1247.66 900.681 1258.55 881.153ZM1253.97 797.997V742.517L1245.06 754.415L1243.45 753.251C1231.93 745.362 1218.56 740.836 1204.82 740.19C1225.87 744.328 1243.07 764.632 1253.97 797.997ZM1356.85 912.579C1327.51 912.579 1312.41 897.189 1312.41 864.6V759.847C1311.79 753.381 1315.5 747.302 1321.32 745.104C1322.31 744.716 1323.42 744.457 1324.66 744.069H1273.28C1274.52 744.457 1275.76 744.716 1276.63 745.104C1282.44 747.302 1286.16 753.381 1285.54 759.847V864.6C1285.54 897.577 1309.43 918.01 1349.42 918.01C1378.02 918.01 1406.25 902.233 1408.85 867.315C1406 894.732 1386.19 912.579 1356.85 912.579ZM1725.91 829.165C1725.91 780.021 1739.53 748.337 1763.67 740.19C1746.34 743.035 1730.37 751.441 1717.86 764.244C1700.9 781.056 1691.86 804.722 1692.98 829.165C1692.36 853.736 1701.52 877.403 1718.11 894.732C1730.86 907.406 1747.08 915.553 1764.54 918.01C1740.02 910.251 1725.91 877.403 1725.91 829.165ZM1836.1 764.244C1823.59 751.441 1807.62 743.035 1790.29 740.19C1814.43 748.337 1828.05 779.892 1828.05 829.165C1828.05 877.403 1813.81 910.251 1789.42 918.14C1806.88 915.683 1823.1 907.535 1835.85 894.861C1852.56 877.532 1861.6 853.866 1860.98 829.294C1862.1 804.722 1852.93 781.056 1836.1 764.244ZM1665.49 745.233C1666.48 744.845 1667.6 744.587 1668.84 744.199H1617.46C1618.7 744.587 1619.93 744.845 1620.8 745.233C1626.62 747.432 1630.33 753.51 1629.72 759.976V898.353C1630.33 904.819 1626.62 910.898 1620.8 913.096C1619.69 913.484 1618.57 913.872 1617.46 914.131H1668.84C1667.6 913.743 1666.36 913.484 1665.49 913.096C1659.68 910.898 1655.96 904.819 1656.58 898.353V759.976C1656.09 753.51 1659.68 747.432 1665.49 745.233ZM1584.16 907.277C1579.45 907.277 1573.26 904.949 1570.54 893.956C1569.17 888.525 1568.18 883.222 1567.19 877.661C1565.96 870.678 1564.35 863.565 1562.49 855.676C1555.93 828.13 1513.46 829.035 1513.46 829.035C1513.46 829.035 1571.28 822.957 1571.28 781.444C1571.28 772.65 1567.32 744.069 1516.31 744.069H1511.48C1528.94 747.82 1539.09 762.951 1539.09 786.358C1539.09 810.542 1526.83 826.32 1505.04 829.035C1529.06 831.105 1533.89 853.866 1536.37 876.109C1539.83 904.949 1549.24 918.01 1568.68 918.01C1582.67 919.562 1595.42 909.863 1598.52 895.379C1596.41 902.104 1590.72 906.889 1584.16 907.277ZM1484.62 898.353V744.199H1445.49C1446.73 744.587 1447.85 744.845 1448.84 745.233C1454.66 747.432 1458.37 753.51 1457.75 759.976V898.353C1458.37 904.819 1454.66 910.898 1448.84 913.096C1447.72 913.484 1446.61 913.872 1445.49 914.131H1496.87C1495.64 913.743 1494.52 913.484 1493.53 913.096C1487.59 910.898 1484 904.819 1484.62 898.353ZM1400.43 748.337C1406.12 752.605 1408.23 762.433 1408.72 779.116C1409.22 762.433 1411.45 752.605 1417.14 748.337C1419.99 746.526 1423.09 745.104 1426.3 744.199H1391.27C1394.49 744.975 1397.58 746.397 1400.43 748.337Z" fill="#69443C"/>
</g>
<defs>
<clipPath id="clip0_4140_3">
<rect width="758.999" height="371.985" fill="white" transform="translate(1110.5 743.953)"/>
</clipPath>
</defs>
</svg>
