<svg width="1000" height="1000" viewBox="0 0 1000 1000" fill="none" xmlns="http://www.w3.org/2000/svg">
<path d="M891.01 402.299C890.127 402.299 890.127 401.669 891.01 401.669C896.128 401.669 896.922 401.039 897.628 389.699C898.07 383.489 897.981 371.519 897.981 363.239C897.981 341.099 897.187 340.739 892.863 340.739H891.274C890.568 340.739 890.568 339.929 891.274 339.929C893.745 339.929 899.746 340.199 901.07 340.199C902.306 340.199 928.957 339.929 932.134 339.929C933.723 339.929 935.752 340.019 936.282 340.289C936.723 340.559 937.518 347.129 938.841 356.849L939.194 360.089C939.371 360.719 938.488 360.629 938.312 360.089L937.87 356.849C936.194 346.769 929.31 341.099 919.25 341.009H908.042C903.982 341.009 904.688 341.099 904.688 363.239V369.449H912.013C923.044 369.449 925.427 365.309 925.427 359.099V357.209C925.427 356.489 926.31 356.489 926.31 357.209C926.31 359.819 925.868 368.639 925.868 369.989C925.868 371.249 926.31 380.969 926.31 382.319C926.31 383.039 925.427 383.039 925.427 382.319V380.969C925.427 374.759 923.044 370.529 912.013 370.529H904.688V387.809C904.688 394.739 904.335 399.509 903.982 401.039C906.542 401.039 917.926 401.309 920.662 401.309C930.899 401.309 938.135 392.309 939.282 383.129L939.812 378.359C939.9 377.819 940.871 377.819 940.783 378.449L940.253 383.309C938.665 397.979 938.135 401.399 937.517 401.939C937.164 402.299 931.869 402.299 925.78 402.299C919.603 402.299 903.453 402.029 903.453 402.029L891.01 402.299Z" fill="#3395A0"/>
<path d="M828.142 402.569C827.26 402.569 827.701 401.849 828.142 401.129L867.019 341.009H850.71C840.572 341.099 833.255 346.769 832.109 356.849L831.227 366.389C831.139 367.019 830.169 366.929 830.169 366.299L831.139 356.849C831.933 347.129 832.638 340.559 833.079 340.289C833.696 340.019 835.723 339.929 837.31 339.929C840.484 339.929 864.992 340.199 866.226 340.199C867.548 340.199 871.78 339.929 874.248 339.929C874.954 339.929 875.747 339.929 875.218 340.829L836.164 401.039C839.25 401.039 853.355 401.309 856 401.309C866.226 401.309 873.102 392.309 873.984 383.129L874.601 374.219C874.689 373.589 875.571 373.679 875.483 374.309L874.954 383.309C873.808 397.979 873.367 401.399 872.838 401.939C872.485 402.299 867.196 402.299 861.113 402.299C854.942 402.299 836.781 402.029 836.781 402.029L828.142 402.569Z" fill="#3395A0"/>
<path d="M763.573 402.299C762.691 402.299 762.691 401.669 763.573 401.669C768.692 401.669 769.486 401.039 770.192 389.699C770.633 383.489 770.545 371.519 770.545 363.239C770.545 341.099 769.751 340.739 765.426 340.739H763.838C763.132 340.739 763.132 339.929 763.838 339.929C766.309 339.929 772.31 340.199 773.634 340.199C774.869 340.199 801.521 339.929 804.698 339.929C806.286 339.929 808.316 340.019 808.845 340.289C809.287 340.559 810.081 347.129 811.405 356.849L811.758 360.089C811.934 360.719 811.052 360.629 810.875 360.089L810.434 356.849C808.757 346.769 801.874 341.099 791.813 341.009H780.605C776.546 341.009 777.252 341.099 777.252 363.239V369.449H784.577C795.608 369.449 797.991 365.309 797.991 359.099V357.209C797.991 356.489 798.873 356.489 798.873 357.209C798.873 359.819 798.432 368.639 798.432 369.989C798.432 371.249 798.873 380.969 798.873 382.319C798.873 383.039 797.991 383.039 797.991 382.319V380.969C797.991 374.759 795.608 370.529 784.577 370.529H777.252V387.809C777.252 394.739 776.899 399.509 776.546 401.039C779.105 401.039 790.489 401.309 793.225 401.309C803.462 401.309 810.699 392.309 811.846 383.129L812.376 378.359C812.464 377.819 813.435 377.819 813.346 378.449L812.817 383.309C811.228 397.979 810.699 401.399 810.081 401.939C809.728 402.299 804.433 402.299 798.344 402.299C792.166 402.299 776.016 402.029 776.016 402.029L763.573 402.299Z" fill="#3395A0"/>
<path d="M698.987 402.299C698.105 402.299 698.105 401.669 698.987 401.669C704.106 401.669 704.9 401.039 705.606 389.699C706.047 383.489 705.959 371.519 705.959 363.239C705.959 341.099 705.165 340.739 700.84 340.739H699.252C698.546 340.739 698.546 339.929 699.252 339.929C701.723 339.929 707.724 340.199 709.048 340.199C710.283 340.199 736.935 339.929 740.112 339.929C741.7 339.929 743.73 340.019 744.26 340.289C744.701 340.559 745.495 347.129 746.819 356.849L747.172 360.089C747.348 360.719 746.466 360.629 746.289 360.089L745.848 356.849C744.171 346.769 737.288 341.099 727.227 341.009H716.019C711.96 341.009 712.666 341.099 712.666 363.239V369.449H719.991C731.022 369.449 733.405 365.309 733.405 359.099V357.209C733.405 356.489 734.287 356.489 734.287 357.209C734.287 359.819 733.846 368.639 733.846 369.989C733.846 371.249 734.287 380.969 734.287 382.319C734.287 383.039 733.405 383.039 733.405 382.319V380.969C733.405 374.759 731.022 370.529 719.991 370.529H712.666V387.809C712.666 394.739 712.313 399.509 711.96 401.039C714.519 401.039 725.903 401.309 728.639 401.309C738.876 401.309 746.113 392.309 747.26 383.129L747.79 378.359C747.878 377.819 748.849 377.819 748.76 378.449L748.231 383.309C746.642 397.979 746.113 401.399 745.495 401.939C745.142 402.299 739.847 402.299 733.758 402.299C727.58 402.299 711.43 402.029 711.43 402.029L698.987 402.299Z" fill="#3395A0"/>
<path d="M635.196 402.299C634.476 402.299 634.476 401.489 635.196 401.489C637.446 401.489 638.796 401.399 639.336 401.309C640.596 400.049 640.956 398.069 641.136 393.209C641.316 388.259 641.406 379.349 641.406 375.209V363.239C641.406 341.099 640.956 340.739 636.546 340.739H634.926C634.206 340.739 634.206 339.929 634.926 339.929C637.446 339.929 643.566 340.199 644.916 340.199C646.176 340.199 654.456 339.929 655.986 339.929C671.466 339.929 679.026 345.239 679.026 354.779C679.026 362.789 669.306 367.739 659.856 369.269C667.506 369.449 670.656 372.239 676.506 384.029C683.976 399.869 685.686 401.489 691.176 401.489H691.806C692.616 401.489 692.706 402.299 691.806 402.299H688.566C685.416 402.299 683.706 402.659 682.356 402.659C680.376 402.659 679.206 402.119 677.766 400.499C675.876 398.339 673.356 394.109 670.296 386.909C663.546 371.339 660.936 370.079 651.936 369.899H648.246V378.989C648.246 401.129 648.696 401.489 653.106 401.489H654.906C655.626 401.489 655.626 402.299 654.906 402.299C652.386 402.299 646.356 402.119 645.096 402.119C643.746 402.119 635.916 402.299 635.196 402.299ZM648.246 354.329V368.999C650.046 368.909 652.296 368.909 655.806 368.909C662.736 368.909 671.016 364.859 671.016 354.689C671.016 345.329 666.516 340.739 655.266 340.739H651.756C648.426 340.739 648.246 341.099 648.246 354.329Z" fill="#3395A0"/>
<path d="M571.834 402.299C571.114 402.299 571.114 401.489 571.834 401.489H573.454C577.864 401.489 578.314 401.129 578.314 378.989V363.239C578.314 341.099 577.864 340.739 573.454 340.739H571.834C571.114 340.739 571.114 339.929 571.834 339.929C574.354 339.929 580.474 340.199 581.824 340.199C583.084 340.199 595.144 339.929 596.764 339.929C611.884 339.929 620.434 343.529 620.434 354.599C620.434 363.599 612.784 368.189 602.074 369.539C613.594 370.439 622.504 375.479 622.504 385.289C622.504 395.999 615.574 402.299 599.104 402.299C597.484 402.299 583.084 402.029 581.824 402.029C580.474 402.029 574.354 402.299 571.834 402.299ZM588.934 341.009C584.524 341.009 585.424 341.099 585.424 363.239V369.269H595.684C606.844 369.269 612.784 365.309 612.784 354.509C612.784 343.709 606.934 341.009 595.414 341.009H588.934ZM590.104 401.489H597.754C609.724 401.489 614.854 396.179 614.854 385.289C614.854 375.299 609.814 370.259 596.854 370.259H585.424V378.989C585.424 401.129 585.694 401.489 590.104 401.489Z" fill="#3395A0"/>
<path d="M473.284 402.569C472.384 402.569 472.384 401.939 473.284 401.939C478.504 401.939 479.314 401.309 480.034 389.969C480.484 383.759 480.394 371.789 480.394 363.509C480.394 341.369 479.584 341.009 475.174 341.009H473.554C472.834 341.009 472.834 340.199 473.554 340.199C476.074 340.199 482.194 340.469 483.544 340.469C484.804 340.469 511.984 340.199 515.224 340.199C516.844 340.199 518.914 340.289 519.454 340.559C519.904 340.829 520.714 347.399 522.064 357.119L522.424 360.359C522.604 360.989 521.704 360.899 521.524 360.359L521.074 357.119C519.364 347.039 512.344 341.369 502.084 341.279H490.654C486.514 341.279 487.234 341.369 487.234 363.509V369.719H494.704C505.954 369.719 508.384 365.579 508.384 359.369V357.479C508.384 356.759 509.284 356.759 509.284 357.479C509.284 360.089 508.834 368.909 508.834 370.259C508.834 371.519 509.284 381.239 509.284 382.589C509.284 383.309 508.384 383.309 508.384 382.589V381.239C508.384 375.029 505.954 370.799 494.704 370.799H487.234V388.079C487.234 395.009 486.874 399.779 486.514 401.309C489.124 401.309 500.734 401.579 503.524 401.579C513.964 401.579 521.344 392.579 522.514 383.399L523.054 378.629C523.144 378.089 524.134 378.089 524.044 378.719L523.504 383.579C521.884 398.249 521.344 401.669 520.714 402.209C520.354 402.569 514.954 402.569 508.744 402.569C502.444 402.569 485.974 402.299 485.974 402.299L473.284 402.569Z" fill="#3395A0"/>
<path d="M456.795 364.319V364.589C456.795 365.759 455.895 365.759 455.895 364.589V364.319C455.895 350.639 453.465 340.199 436.725 340.199C425.745 340.199 421.335 345.329 421.335 352.169C421.335 360.809 430.605 364.589 439.875 368.459C449.235 372.419 458.685 376.469 458.685 386.189C458.685 396.539 449.865 403.469 439.065 403.469C429.345 403.469 424.485 402.479 418.095 400.769C417.285 400.589 417.195 400.409 417.195 399.869C417.195 395.729 417.105 381.239 417.105 376.829C417.105 375.569 418.095 375.569 418.095 376.829C418.095 393.569 424.125 402.569 439.065 402.569C448.965 402.569 453.285 397.529 453.285 390.419C453.285 381.599 444.285 377.999 435.105 374.129C425.475 370.169 415.665 365.939 415.665 356.399C415.665 345.689 425.295 339.299 436.725 339.299C445.725 339.299 451.215 340.469 456.345 341.639C456.975 341.819 457.245 341.909 457.335 342.629C457.515 344.429 456.795 350.279 456.795 364.319Z" fill="#3395A0"/>
<path d="M384.062 363.509C384.062 341.369 383.612 341.009 379.202 341.009H377.312C376.592 341.009 376.592 340.199 377.312 340.199C379.832 340.199 386.312 340.469 387.572 340.469C388.922 340.469 395.222 340.199 397.742 340.199C398.462 340.199 398.462 341.009 397.742 341.009H395.852C391.442 341.009 390.992 341.369 390.992 363.509V379.259C390.992 401.399 391.442 401.759 395.852 401.759H397.742C398.462 401.759 398.462 402.569 397.742 402.569C395.222 402.569 388.922 402.299 387.572 402.299C386.312 402.299 379.832 402.569 377.312 402.569C376.592 402.569 376.592 401.759 377.312 401.759H379.202C383.612 401.759 384.062 401.399 384.062 379.259V363.509Z" fill="#3395A0"/>
<path d="M307.717 402.569C306.817 402.569 306.817 401.939 307.717 401.939C312.937 401.939 314.017 401.309 314.467 389.969C314.737 383.759 314.557 371.339 314.557 367.199C314.557 363.059 314.287 354.149 314.287 349.199C314.287 341.099 314.107 341.009 308.347 341.009C307.627 341.009 307.627 340.199 308.347 340.199C309.067 340.199 317.977 340.379 319.327 340.379C320.677 340.379 331.387 340.199 333.997 340.199C352.537 340.199 368.377 352.619 368.377 371.429C368.377 389.879 353.707 402.569 334.357 402.569C331.747 402.569 323.467 402.299 320.407 402.299C315.277 402.299 311.047 402.479 307.717 402.569ZM360.367 371.429C360.367 352.889 349.927 341.009 333.817 341.009H327.877C321.757 341.009 321.667 341.459 321.667 363.509V388.079C321.667 395.009 321.307 399.779 320.947 401.309C323.107 401.309 330.487 401.669 334.537 401.669C350.827 401.669 360.367 389.879 360.367 371.429Z" fill="#3395A0"/>
<path d="M269.082 380.519C264.672 380.519 255.672 380.249 252.972 380.159L251.442 384.029C249.912 387.809 248.202 393.479 248.202 397.439C248.202 400.319 250.002 401.849 253.242 401.849C253.962 401.849 255.402 401.579 255.762 401.579C256.212 401.579 256.392 401.759 256.392 402.029C256.392 402.299 256.212 402.569 255.312 402.569C253.692 402.569 246.582 402.389 245.052 402.389C243.882 402.389 239.832 402.569 237.582 402.569C237.222 402.569 237.042 402.389 237.042 402.119C237.042 401.939 237.312 401.759 237.582 401.759H237.942C240.462 401.759 242.532 399.869 244.422 396.359C246.672 392.489 248.922 387.359 250.362 383.579L267.732 340.199C267.822 340.019 267.912 339.929 268.362 339.929H269.262C269.802 339.929 270.072 340.019 270.162 340.199L286.542 379.259C295.452 400.319 296.802 401.759 301.122 401.759H301.842C302.292 401.759 302.472 401.939 302.472 402.119C302.472 402.389 302.292 402.569 301.932 402.569C299.322 402.569 294.192 402.299 292.842 402.299C291.492 402.299 284.562 402.569 281.952 402.569C281.232 402.569 280.962 401.759 281.682 401.759H283.572C287.532 401.759 288.162 400.139 279.612 380.249L269.082 380.519ZM279.162 379.259L265.752 347.849L253.242 379.439L268.542 379.349H279.162V379.259Z" fill="#3395A0"/>
<path d="M176.852 402.569C176.132 402.569 176.132 401.759 176.852 401.759C179.102 401.759 180.452 401.669 180.992 401.579C182.252 400.319 182.612 398.339 182.792 393.479C182.972 388.529 183.062 379.619 183.062 375.479V363.509C183.062 341.369 182.612 341.009 178.202 341.009H176.582C175.862 341.009 175.862 340.199 176.582 340.199C179.102 340.199 185.222 340.469 186.572 340.469C187.832 340.469 196.112 340.199 197.642 340.199C213.122 340.199 220.682 345.509 220.682 355.049C220.682 363.059 210.962 368.009 201.512 369.539C209.162 369.719 212.312 372.509 218.162 384.299C225.632 400.139 227.342 401.759 232.832 401.759H233.462C234.272 401.759 234.362 402.569 233.462 402.569H230.222C227.072 402.569 225.362 402.929 224.012 402.929C222.032 402.929 220.862 402.389 219.422 400.769C217.532 398.609 215.012 394.379 211.952 387.179C205.202 371.609 202.592 370.349 193.592 370.169H189.902V379.259C189.902 401.399 190.352 401.759 194.762 401.759H196.562C197.282 401.759 197.282 402.569 196.562 402.569C194.042 402.569 188.012 402.389 186.752 402.389C185.402 402.389 177.572 402.569 176.852 402.569ZM189.902 354.599V369.269C191.702 369.179 193.952 369.179 197.462 369.179C204.392 369.179 212.672 365.129 212.672 354.959C212.672 345.599 208.172 341.009 196.922 341.009H193.412C190.082 341.009 189.902 341.369 189.902 354.599Z" fill="#3395A0"/>
<path d="M139.082 380.519C134.672 380.519 125.672 380.249 122.972 380.159L121.442 384.029C119.912 387.809 118.202 393.479 118.202 397.439C118.202 400.319 120.002 401.849 123.242 401.849C123.962 401.849 125.402 401.579 125.762 401.579C126.212 401.579 126.392 401.759 126.392 402.029C126.392 402.299 126.212 402.569 125.312 402.569C123.692 402.569 116.582 402.389 115.052 402.389C113.882 402.389 109.832 402.569 107.582 402.569C107.222 402.569 107.042 402.389 107.042 402.119C107.042 401.939 107.312 401.759 107.582 401.759H107.942C110.462 401.759 112.532 399.869 114.422 396.359C116.672 392.489 118.922 387.359 120.362 383.579L137.732 340.199C137.822 340.019 137.912 339.929 138.362 339.929H139.262C139.802 339.929 140.072 340.019 140.162 340.199L156.542 379.259C165.452 400.319 166.802 401.759 171.122 401.759H171.842C172.292 401.759 172.472 401.939 172.472 402.119C172.472 402.389 172.292 402.569 171.932 402.569C169.322 402.569 164.192 402.299 162.842 402.299C161.492 402.299 154.562 402.569 151.952 402.569C151.232 402.569 150.962 401.759 151.682 401.759H153.572C157.532 401.759 158.162 400.139 149.612 380.249L139.082 380.519ZM149.162 379.259L135.752 347.849L123.242 379.439L138.542 379.349H149.162V379.259Z" fill="#3395A0"/>
<path d="M60.0219 402.299C59.3019 402.299 59.3019 401.489 60.0219 401.489C61.9119 401.489 63.2619 401.489 64.1619 401.309C65.4219 400.049 65.7819 398.069 65.9619 393.209C66.1419 388.259 66.2319 379.349 66.2319 375.209V363.239C66.2319 341.099 65.7819 340.739 61.3719 340.739H59.7519C59.0319 340.739 59.0319 339.929 59.7519 339.929C62.2719 339.929 68.3919 340.199 69.7419 340.199C71.0019 340.199 84.2319 339.929 85.8519 339.929C100.432 339.929 109.612 346.049 109.612 357.209C109.612 368.279 100.072 375.749 86.3919 375.749C81.9819 375.659 77.4819 375.659 73.0719 375.659V378.899C73.0719 400.949 74.1519 401.489 77.3019 401.489H81.8919C82.6119 401.489 82.6119 402.299 81.8919 402.299C79.2819 402.299 72.3519 402.119 71.0019 402.119C69.6519 402.119 60.7419 402.299 60.0219 402.299ZM76.5819 340.829C73.2519 340.829 73.0719 341.099 73.0719 354.329V374.759H84.4119C95.5719 374.759 101.872 367.919 101.872 357.119C101.872 346.229 96.0219 340.829 84.5019 340.829H76.5819Z" fill="#3395A0"/>
<path d="M287.942 468.517V449.927H295.482C299.148 449.927 301.618 451.903 301.618 455.205C301.618 457.883 300.344 459.365 298.29 459.885V459.937C302.424 460.743 300.916 468.049 301.878 468.361V468.517H299.356C298.55 467.737 300.318 461.003 295.612 461.003H290.282V468.517H287.942ZM290.282 452.007V458.923H294.936C296.86 458.923 299.278 458.689 299.278 455.465C299.278 452.241 296.86 452.007 294.936 452.007H290.282ZM315.055 457.857H324.597V459.937H315.055V466.437H326.157V468.517H312.715V449.927H325.845V452.007H315.055V457.857ZM337.209 449.927H339.549V466.437H349.299V468.517H337.209V449.927ZM370.69 463.863H362.5L360.862 468.517H358.444L365.308 449.927H367.908L374.746 468.517H372.328L370.69 463.863ZM363.28 461.783H369.936L366.634 452.085H366.582L363.28 461.783ZM390.046 459.027L384.144 449.927H386.744L391.32 457.363H391.346L395.948 449.927H398.548L392.646 458.975L398.99 468.517H396.13L391.346 460.691H391.32L386.562 468.517H383.702L390.046 459.027Z" fill="#69443C"/>
<rect x="427.2" y="446.017" width="2.3" height="26" fill="#69443C"/>
<path d="M458.242 468.517V449.927H465.626C469.032 449.927 471.658 451.435 471.658 455.335C471.658 459.235 469.032 460.743 465.626 460.743H460.582V468.517H458.242ZM460.582 452.007V458.663H465.886C468.2 458.663 469.318 457.597 469.318 455.335C469.318 453.073 468.2 452.007 465.886 452.007H460.582ZM482.228 449.927H484.568V466.437H494.318V468.517H482.228V449.927ZM515.709 463.863H507.518L505.88 468.517H503.462L510.326 449.927H512.926L519.765 468.517H517.347L515.709 463.863ZM508.298 461.783H514.954L511.652 452.085H511.6L508.298 461.783ZM526.661 449.927H529.183L534.565 459.027H534.617L540.025 449.927H542.547L535.761 460.899V468.517H533.421V460.899L526.661 449.927Z" fill="#69443C"/>
<rect x="570.5" y="446.017" width="2.3" height="26" fill="#69443C"/>
<path d="M601.542 468.517V449.927H609.082C612.748 449.927 615.218 451.903 615.218 455.205C615.218 457.883 613.944 459.365 611.89 459.885V459.937C616.024 460.743 614.516 468.049 615.478 468.361V468.517H612.956C612.15 467.737 613.918 461.003 609.212 461.003H603.882V468.517H601.542ZM603.882 452.007V458.923H608.536C610.46 458.923 612.878 458.689 612.878 455.465C612.878 452.241 610.46 452.007 608.536 452.007H603.882ZM628.655 457.857H638.197V459.937H628.655V466.437H639.757V468.517H626.315V449.927H639.445V452.007H628.655V457.857ZM657.237 457.675C661.423 458.715 664.153 459.417 664.153 463.655C664.153 466.359 662.151 468.881 657.445 468.881C653.051 468.881 649.645 466.541 649.385 462.277H651.725C651.985 464.825 653.545 466.801 657.445 466.801C660.669 466.801 661.813 465.319 661.813 463.655C661.813 461.107 660.435 460.639 656.275 459.677C653.493 459.027 650.165 458.065 650.165 454.451C650.165 451.513 652.427 449.563 656.535 449.563C660.487 449.563 663.243 451.591 663.555 455.439H661.215C660.877 452.943 659.473 451.643 656.535 451.643C653.909 451.643 652.505 452.657 652.505 454.191C652.505 456.661 654.507 456.999 657.237 457.675ZM677.491 457.857H687.033V459.937H677.491V466.437H688.593V468.517H675.151V449.927H688.281V452.007H677.491V457.857ZM704.663 468.517V452.007H698.475V449.927H713.191V452.007H707.003V468.517H704.663Z" fill="#69443C"/>
<path d="M286.2 517.701L713.8 517.564" stroke="#69443C" stroke-width="2.3"/>
<g clip-path="url(#clip0_3112_3994)">
<path d="M460.62 645.451C459.41 645.487 458.237 645.965 457.357 646.81V641.041H453.8V641.703L454.68 641.85V655.078L453.8 655.225V655.887H457.357V655.336C458.127 655.85 459.007 656.107 459.923 656.071C463.003 656.071 464.763 654.05 464.763 650.559C464.727 647.509 463.003 645.451 460.62 645.451ZM459.593 655.152C458.75 655.115 457.98 654.821 457.32 654.27V647.692C457.87 647.398 458.493 647.215 459.117 647.178C460.84 647.178 461.903 648.684 461.903 651.073C461.903 653.609 461.06 655.152 459.593 655.152ZM472.83 645.634H475.8V646.369L474.957 646.516L470.85 656.512C469.933 658.79 469.053 660.701 467.11 660.701C466.523 660.701 465.973 660.627 465.387 660.517V658.275H465.973L466.377 659.157C466.633 659.341 466.927 659.451 467.22 659.415C468.43 659.415 469.237 657.577 469.75 656.365L469.86 656.107L465.717 646.516L464.91 646.333V645.598H469.457V646.333L468.577 646.516L471.253 652.8L473.747 646.48L472.83 646.333V645.634ZM489.697 641.482H494.537V642.217L493.547 642.364V655.042L494.537 655.189V655.924H489.697V655.189L490.723 655.042V649.272H484.527V655.042L485.48 655.189V655.924H480.713V655.189L481.667 655.042V642.364L480.713 642.217V641.519H485.48V642.254L484.527 642.401V647.803H490.723V642.401L489.697 642.254V641.482ZM500.147 655.078L501.063 655.225V655.887H496.627V655.225L497.543 655.078V646.406L496.627 646.259V645.598H500.183V655.078H500.147ZM497.397 642.474C497.36 641.886 497.617 641.372 498.13 641.041C498.607 640.747 499.23 640.71 499.707 641.004C500.183 641.298 500.513 641.813 500.477 642.401C500.513 642.842 500.367 643.246 500.073 643.577C499.78 643.907 499.377 644.091 498.937 644.091C498.497 644.091 498.093 643.944 497.8 643.613C497.507 643.319 497.36 642.878 497.397 642.474ZM506.563 655.078L507.48 655.225V655.887H503.043V655.225L503.923 655.078V641.85L503.043 641.703V641.041H506.6V655.078H506.563ZM514.63 654.748C515.107 654.785 515.583 654.748 516.023 654.638V655.336C514.96 655.74 513.86 655.96 512.76 655.997C510.707 655.997 510.23 655.042 510.23 653.278V646.59H508.36V645.634H510.303V643.503L512.87 642.731V645.671H515.253V646.627H512.87V652.69C512.87 654.233 513.2 654.748 514.63 654.748ZM521.927 645.34C520.46 645.23 518.993 645.781 517.967 646.847C516.903 647.913 516.39 649.346 516.463 650.853C516.243 652.322 516.72 653.829 517.783 654.858C518.847 655.924 520.313 656.401 521.78 656.181C523.247 656.291 524.677 655.777 525.703 654.748C526.767 653.719 527.317 652.286 527.243 650.853C527.427 649.383 526.913 647.913 525.887 646.847C524.823 645.781 523.393 645.23 521.927 645.34ZM521.817 655.372C520.313 655.372 519.36 654.013 519.36 650.779C519.36 647.472 520.313 646.149 521.817 646.149C523.357 646.149 524.31 647.582 524.31 650.779C524.31 654.086 523.43 655.372 521.817 655.372ZM538.977 655.078L539.893 655.225V655.887H535.457V655.225L536.337 655.078V649.272C536.337 647.656 535.75 646.921 534.54 646.921C533.77 647.031 533.037 647.325 532.45 647.766V655.078L533.367 655.225V655.887H528.893V655.225L529.81 655.078V646.48L528.893 646.333V645.598H532.45V647.031C533.44 646.075 534.76 645.487 536.117 645.414C538.097 645.414 539.013 646.59 539.013 648.905L538.977 655.078ZM546.457 641.703V644.238L546.75 644.275V644.495H545.503V644.275L545.797 644.238V641.96L544.66 644.495H544.55L543.487 641.996V644.238L543.78 644.275V644.495H542.9V644.275L543.193 644.238V641.666L542.9 641.592V641.372H544L544.843 643.356L545.723 641.372H546.75V641.592L546.457 641.703ZM539.857 641.445H542.643V642.07H542.423L542.35 641.739H541.58V644.275L541.91 644.312V644.532H540.59V644.312L540.92 644.275V641.739H540.15L540.113 642.07H539.857V641.445ZM413.687 625.828L414.97 627.077C413.247 629.061 410.717 630.164 408.077 630.127C405.767 630.127 403.53 629.208 401.88 627.518C400.23 625.828 399.387 623.586 399.46 621.234V621.198C399.387 618.846 400.267 616.567 401.917 614.877C403.567 613.187 405.803 612.231 408.15 612.268C410.68 612.195 413.1 613.187 414.86 615.024L413.54 616.457C412.147 614.951 410.203 614.105 408.15 614.105C406.317 614.142 404.593 614.877 403.31 616.237C402.063 617.56 401.403 619.36 401.477 621.198V621.234C401.403 623.072 402.063 624.872 403.31 626.232C404.557 627.592 406.317 628.363 408.15 628.4C410.24 628.29 412.257 627.408 413.687 625.828ZM439.06 621.124V621.161C439.133 624.358 437.447 627.298 434.733 628.914C432.02 630.531 428.61 630.531 425.897 628.951C423.147 627.371 421.497 624.395 421.533 621.234V621.198C421.46 618.001 423.147 615.061 425.86 613.444C428.573 611.827 431.983 611.827 434.697 613.407C437.41 614.987 439.097 617.927 439.06 621.124ZM437.043 621.161C437.117 619.287 436.42 617.486 435.173 616.163C433.89 614.804 432.13 614.069 430.26 614.032C428.427 614.032 426.667 614.804 425.383 616.126C424.1 617.449 423.44 619.25 423.513 621.124V621.161C423.44 623.035 424.137 624.836 425.383 626.158C426.667 627.518 428.427 628.253 430.26 628.29C432.093 628.29 433.853 627.518 435.137 626.195C436.42 624.872 437.08 623.072 437.007 621.198L437.043 621.161ZM449.033 612.525H447.09V629.796H458.713V627.996H449.033V612.525ZM468.65 612.525H466.707V629.796H478.33V627.996H468.65V612.525ZM488.303 621.969H497.69V620.205H488.267V614.326H498.753V612.562H486.323V629.833H498.9V628.069H488.267L488.303 621.969ZM515.143 628.29C513.31 628.253 511.587 627.481 510.303 626.122C509.057 624.762 508.397 622.998 508.47 621.161V621.124C508.397 619.287 509.057 617.486 510.303 616.163C511.55 614.84 513.31 614.069 515.143 614.032C517.197 614.032 519.14 614.914 520.533 616.384L521.853 614.951C520.093 613.113 517.673 612.121 515.143 612.195C512.797 612.195 510.56 613.15 508.91 614.804C507.26 616.457 506.38 618.772 506.453 621.124V621.161C506.38 623.513 507.26 625.754 508.873 627.445C510.487 629.135 512.723 630.054 515.07 630.054C517.71 630.09 520.203 628.988 521.963 627.004L520.68 625.754C519.25 627.408 517.233 628.29 515.143 628.29ZM528.527 614.326H534.283V629.796H536.263V614.326H542.02V612.525H528.527V614.326ZM550.27 629.796H552.213V612.525H550.27V629.796ZM578.467 621.124V621.161C578.467 624.321 576.817 627.224 574.103 628.804C571.39 630.384 568.053 630.384 565.34 628.841C562.627 627.261 560.94 624.358 560.94 621.234V621.198C560.94 616.347 564.827 612.378 569.667 612.378C574.507 612.305 578.43 616.237 578.467 621.124ZM576.45 621.161C576.523 619.287 575.827 617.486 574.58 616.163C573.297 614.804 571.537 614.069 569.703 614.032C567.87 614.032 566.11 614.804 564.827 616.126C563.543 617.449 562.883 619.25 562.957 621.124V621.161C562.883 623.035 563.58 624.836 564.827 626.158C566.11 627.518 567.87 628.253 569.703 628.29C571.537 628.29 573.297 627.518 574.58 626.195C575.863 624.872 576.523 623.072 576.45 621.198V621.161ZM598.633 612.525V626.379L587.817 612.525H585.983V629.796H587.89V615.649L599 629.796H600.54V612.525H598.633ZM431.543 592.792C428.023 599.406 421.093 603.449 413.65 603.265C399.497 603.265 390 592.719 390 577.983C390 564.644 398.323 554.759 410.387 552.701C403.493 554.906 399.643 564.313 399.643 577.983C399.643 593.049 405.767 601.722 416.033 601.722C422.413 601.758 428.317 598.341 431.543 592.792ZM430.187 569.164V553.399L427.547 556.78L427.07 556.449C423.66 554.207 419.7 552.921 415.63 552.738C421.863 553.913 426.96 559.683 430.187 569.164ZM460.657 601.722C451.967 601.722 447.493 597.349 447.493 588.088V558.323C447.31 556.486 448.41 554.759 450.133 554.134C450.427 554.024 450.757 553.95 451.123 553.84H435.907C436.273 553.95 436.64 554.024 436.897 554.134C438.62 554.759 439.72 556.486 439.537 558.323V588.088C439.537 597.459 446.613 603.265 458.457 603.265C466.927 603.265 475.287 598.782 476.057 588.86C475.213 596.65 469.347 601.722 460.657 601.722ZM569.96 578.02C569.96 564.056 573.993 555.053 581.143 552.738C576.01 553.546 571.28 555.935 567.577 559.573C562.553 564.35 559.877 571.074 560.207 578.02C560.023 585.002 562.737 591.726 567.65 596.65C571.427 600.252 576.23 602.567 581.4 603.265C574.14 601.06 569.96 591.726 569.96 578.02ZM602.593 559.573C598.89 555.935 594.16 553.546 589.027 552.738C596.177 555.053 600.21 564.019 600.21 578.02C600.21 591.726 595.993 601.06 588.77 603.302C593.94 602.603 598.743 600.288 602.52 596.687C607.47 591.763 610.147 585.038 609.963 578.056C610.293 571.074 607.58 564.35 602.593 559.573ZM552.067 554.171C552.36 554.06 552.69 553.987 553.057 553.877H537.84C538.207 553.987 538.573 554.06 538.83 554.171C540.553 554.795 541.653 556.523 541.47 558.36V597.679C541.653 599.517 540.553 601.244 538.83 601.869C538.5 601.979 538.17 602.089 537.84 602.163H553.057C552.69 602.052 552.323 601.979 552.067 601.869C550.343 601.244 549.243 599.517 549.427 597.679V558.36C549.28 556.523 550.343 554.795 552.067 554.171ZM527.977 600.215C526.583 600.215 524.75 599.553 523.943 596.43C523.54 594.887 523.247 593.38 522.953 591.8C522.587 589.815 522.11 587.794 521.56 585.553C519.617 577.726 507.04 577.983 507.04 577.983C507.04 577.983 524.163 576.256 524.163 564.46C524.163 561.961 522.99 553.84 507.883 553.84H506.453C511.623 554.906 514.63 559.205 514.63 565.856C514.63 572.728 511 577.211 504.547 577.983C511.66 578.571 513.09 585.038 513.823 591.359C514.85 599.553 517.637 603.265 523.393 603.265C527.537 603.706 531.313 600.95 532.23 596.834C531.607 598.745 529.92 600.105 527.977 600.215ZM498.497 597.679V553.877H486.91C487.277 553.987 487.607 554.06 487.9 554.171C489.623 554.795 490.723 556.523 490.54 558.36V597.679C490.723 599.517 489.623 601.244 487.9 601.869C487.57 601.979 487.24 602.089 486.91 602.163H502.127C501.76 602.052 501.43 601.979 501.137 601.869C499.377 601.244 498.313 599.517 498.497 597.679ZM473.563 555.053C475.25 556.265 475.873 559.058 476.02 563.798C476.167 559.058 476.827 556.265 478.513 555.053C479.357 554.538 480.273 554.134 481.227 553.877H470.85C471.803 554.097 472.72 554.501 473.563 555.053Z" fill="#69443C"/>
</g>
<defs>
<clipPath id="clip0_3112_3994">
<rect width="220" height="108" fill="white" transform="translate(390 552.701)"/>
</clipPath>
</defs>
</svg>
