<svg width="62" height="31" viewBox="0 0 62 31" fill="none" xmlns="http://www.w3.org/2000/svg">
<path d="M19.8289 25.9604C19.4891 25.9707 19.1597 26.1044 18.9126 26.341V24.7262H17.9139V24.9113L18.161 24.9524V28.6552L17.9139 28.6963V28.8815H18.9126V28.7272C19.1288 28.8712 19.3759 28.9432 19.6332 28.9329C20.4981 28.9329 20.9922 28.3672 20.9922 27.3901C20.9819 26.5364 20.4981 25.9604 19.8289 25.9604ZM19.5406 28.6758C19.3038 28.6655 19.0876 28.5832 18.9023 28.4289V26.5878C19.0567 26.5055 19.2317 26.4541 19.4068 26.4438C19.8906 26.4438 20.1892 26.8655 20.1892 27.5341C20.1892 28.2438 19.9524 28.6758 19.5406 28.6758ZM23.2572 26.0118H24.0911V26.2175L23.8543 26.2587L22.7013 29.0563C22.4439 29.694 22.1968 30.2289 21.6511 30.2289C21.4864 30.2289 21.332 30.2083 21.1673 30.1774V29.55H21.332L21.4452 29.7969C21.5173 29.8483 21.5997 29.8792 21.682 29.8689C22.0218 29.8689 22.2483 29.3546 22.3924 29.0152L22.4233 28.9432L21.2599 26.2587L21.0334 26.2073V26.0016H22.31V26.2073L22.063 26.2587L22.8145 28.0175L23.5146 26.2484L23.2572 26.2073V26.0118ZM27.9931 24.8496H29.3521V25.0553L29.0741 25.0964V28.6449L29.3521 28.6861V28.8918H27.9931V28.6861L28.2813 28.6449V27.0301H26.5414V28.6449L26.8091 28.6861V28.8918H25.4707V28.6861L25.7384 28.6449V25.0964L25.4707 25.0553V24.8599H26.8091V25.0656L26.5414 25.1067V26.6187H28.2813V25.1067L27.9931 25.0656V24.8496ZM30.9273 28.6552L31.1846 28.6963V28.8815H29.9389V28.6963L30.1963 28.6552V26.2278L29.9389 26.1867V26.0016H30.9376V28.6552H30.9273ZM30.1551 25.1273C30.1448 24.9627 30.2169 24.8187 30.361 24.7262C30.4949 24.6439 30.6699 24.6336 30.8037 24.7159C30.9376 24.7982 31.0302 24.9422 31.0199 25.1067C31.0302 25.2301 30.989 25.3433 30.9067 25.4359C30.8243 25.5284 30.7111 25.5798 30.5875 25.5798C30.464 25.5798 30.3507 25.5387 30.2684 25.4461C30.186 25.3639 30.1448 25.2404 30.1551 25.1273ZM32.7289 28.6552L32.9863 28.6963V28.8815H31.7406V28.6963L31.9877 28.6552V24.9524L31.7406 24.9113V24.7262H32.7392V28.6552H32.7289ZM34.9939 28.5626C35.1278 28.5729 35.2616 28.5626 35.3851 28.5318V28.7272C35.0866 28.8403 34.7777 28.902 34.4689 28.9123C33.8923 28.9123 33.7585 28.6449 33.7585 28.1512V26.2793H33.2334V26.0118H33.7791V25.4153L34.4997 25.1993V26.0221H35.1689V26.2895H34.4997V27.9866C34.4997 28.4186 34.5924 28.5626 34.9939 28.5626ZM37.0427 25.9296C36.6309 25.8987 36.2191 26.053 35.9308 26.3513C35.6322 26.6495 35.4881 27.0507 35.5087 27.4724C35.4469 27.8838 35.5808 28.3055 35.8793 28.5935C36.1779 28.8918 36.5897 29.0255 37.0015 28.9638C37.4133 28.9946 37.8148 28.8506 38.1031 28.5626C38.4017 28.2746 38.5561 27.8735 38.5355 27.4724C38.587 27.061 38.4429 26.6495 38.1546 26.3513C37.856 26.053 37.4545 25.8987 37.0427 25.9296ZM37.0118 28.7375C36.5897 28.7375 36.322 28.3569 36.322 27.4518C36.322 26.5261 36.5897 26.1558 37.0118 26.1558C37.4442 26.1558 37.7119 26.557 37.7119 27.4518C37.7119 28.3775 37.4648 28.7375 37.0118 28.7375ZM41.83 28.6552L42.0874 28.6963V28.8815H40.8417V28.6963L41.0888 28.6552V27.0301C41.0888 26.5775 40.924 26.3718 40.5843 26.3718C40.3681 26.4027 40.1622 26.485 39.9975 26.6084V28.6552L40.2549 28.6963V28.8815H38.9988V28.6963L39.2562 28.6552V26.2484L38.9988 26.2073V26.0016H39.9975V26.4027C40.2754 26.1353 40.6461 25.9707 41.027 25.9501C41.583 25.9501 41.8403 26.2793 41.8403 26.9272L41.83 28.6552ZM43.9303 24.9113V25.621L44.0127 25.6313V25.693H43.6626V25.6313L43.745 25.621V24.9833L43.4258 25.693H43.3949L43.0964 24.9936V25.621L43.1787 25.6313V25.693H42.9316V25.6313L43.014 25.621V24.901L42.9316 24.8804V24.8187H43.2405L43.4773 25.3741L43.7244 24.8187H44.0127V24.8804L43.9303 24.9113ZM42.0771 24.8393H42.8596V25.0141H42.7978L42.7772 24.9216H42.561V25.6313L42.6537 25.6416V25.7033H42.283V25.6416L42.3757 25.6313V24.9216H42.1595L42.1492 25.0141H42.0771V24.8393ZM6.6508 20.468L7.01114 20.8177C6.52726 21.3731 5.81688 21.6817 5.07561 21.6714C4.427 21.6714 3.79899 21.4142 3.3357 20.9411C2.87241 20.468 2.63561 19.8406 2.6562 19.1823V19.172C2.63561 18.5137 2.8827 17.876 3.34599 17.4029C3.80928 16.9298 4.4373 16.6624 5.0962 16.6727C5.80658 16.6521 6.48608 16.9298 6.98025 17.4441L6.60962 17.8452C6.2184 17.4235 5.67274 17.1869 5.0962 17.1869C4.58143 17.1972 4.09755 17.4029 3.73722 17.7835C3.38717 18.1538 3.20186 18.6577 3.22245 19.172V19.1823C3.20186 19.6966 3.38717 20.2006 3.73722 20.5811C4.08726 20.9617 4.58143 21.1777 5.0962 21.188C5.68304 21.1571 6.24928 20.9103 6.6508 20.468ZM13.7752 19.1514V19.1617C13.7958 20.0566 13.3222 20.8794 12.5603 21.332C11.7985 21.7845 10.841 21.7845 10.0792 21.3422C9.307 20.9 8.84371 20.0668 8.85401 19.1823V19.172C8.83342 18.2772 9.307 17.4543 10.0689 17.0018C10.8307 16.5492 11.7882 16.5492 12.55 16.9915C13.3119 17.4338 13.7855 18.2566 13.7752 19.1514ZM13.2089 19.1617C13.2295 18.6372 13.0339 18.1332 12.6839 17.7629C12.3235 17.3823 11.8294 17.1766 11.3043 17.1664C10.7895 17.1664 10.2954 17.3823 9.93502 17.7526C9.57468 18.1229 9.38937 18.6269 9.40996 19.1514V19.1617C9.38937 19.6863 9.58498 20.1903 9.93502 20.5605C10.2954 20.9411 10.7895 21.1468 11.3043 21.1571C11.8191 21.1571 12.3132 20.9411 12.6736 20.5708C13.0339 20.2006 13.2192 19.6966 13.1986 19.172L13.2089 19.1617ZM16.5755 16.7446H16.0299V21.5788H19.2935V21.0748H16.5755V16.7446ZM22.0835 16.7446H21.5379V21.5788H24.8015V21.0748H22.0835V16.7446ZM27.6019 19.388H30.2375V18.8943H27.5916V17.2486H30.536V16.7549H27.0459V21.5891H30.5772V21.0954H27.5916L27.6019 19.388ZM35.1381 21.1571C34.6233 21.1468 34.1394 20.9308 33.7791 20.5503C33.429 20.1697 33.2437 19.676 33.2643 19.1617V19.1514C33.2437 18.6372 33.429 18.1332 33.7791 17.7629C34.1291 17.3926 34.6233 17.1766 35.1381 17.1664C35.7146 17.1664 36.2603 17.4132 36.6515 17.8246L37.0221 17.4235C36.5279 16.9092 35.8484 16.6315 35.1381 16.6521C34.4792 16.6521 33.8511 16.9195 33.3878 17.3823C32.9246 17.8452 32.6775 18.4932 32.6981 19.1514V19.1617C32.6775 19.82 32.9246 20.4474 33.3776 20.9205C33.8306 21.3937 34.4586 21.6508 35.1175 21.6508C35.8587 21.6611 36.5588 21.3525 37.053 20.7971L36.6927 20.4474C36.2911 20.9103 35.7249 21.1571 35.1381 21.1571ZM38.8959 17.2486H40.5122V21.5788H41.0682V17.2486H42.6846V16.7446H38.8959V17.2486ZM45.001 21.5788H45.5467V16.7446H45.001V21.5788ZM52.9181 19.1514V19.1617C52.9181 20.0463 52.4549 20.8588 51.693 21.3011C50.9311 21.7434 49.9943 21.7434 49.2324 21.3114C48.4705 20.8691 47.997 20.0566 47.997 19.1823V19.172C47.997 17.8143 49.0883 16.7035 50.4473 16.7035C51.8062 16.6829 52.9078 17.7835 52.9181 19.1514ZM52.3519 19.1617C52.3725 18.6372 52.1769 18.1332 51.8268 17.7629C51.4665 17.3823 50.9723 17.1766 50.4576 17.1664C49.9428 17.1664 49.4486 17.3823 49.0883 17.7526C48.7279 18.1229 48.5426 18.6269 48.5632 19.1514V19.1617C48.5426 19.6863 48.7382 20.1903 49.0883 20.5605C49.4486 20.9411 49.9428 21.1468 50.4576 21.1571C50.9723 21.1571 51.4665 20.9411 51.8268 20.5708C52.1872 20.2006 52.3725 19.6966 52.3519 19.172V19.1617ZM58.5806 16.7446V20.6223L55.5435 16.7446H55.0287V21.5788H55.564V17.6189L58.6835 21.5788H59.1159V16.7446H58.5806ZM11.6646 11.2214C10.6763 13.0727 8.73046 14.2041 6.64051 14.1527C2.6665 14.1527 0 11.2008 0 7.07633C0 3.34271 2.33705 0.575924 5.72422 -6.10352e-05C3.78869 0.617066 2.70768 3.25014 2.70768 7.07633C2.70768 11.2934 4.427 13.7207 7.3097 13.7207C9.1011 13.731 10.7586 12.7745 11.6646 11.2214ZM11.2837 4.60782V0.195362L10.5424 1.14162L10.4086 1.04905C9.45114 0.421642 8.33924 0.0616517 7.19646 0.0102244C8.94667 0.339359 10.3777 1.95417 11.2837 4.60782ZM19.8392 13.7207C17.3992 13.7207 16.1431 12.4968 16.1431 9.90483V1.57361C16.0916 1.05934 16.4005 0.575924 16.8844 0.401071C16.9667 0.370215 17.0594 0.349644 17.1624 0.318788H12.8898C12.9927 0.349644 13.0957 0.370215 13.1678 0.401071C13.6516 0.575924 13.9605 1.05934 13.909 1.57361V9.90483C13.909 12.5276 15.896 14.1527 19.2214 14.1527C21.5997 14.1527 23.947 12.8979 24.1632 10.1208C23.9264 12.3013 22.2792 13.7207 19.8392 13.7207ZM50.5296 7.08661C50.5296 3.17814 51.6621 0.658208 53.6697 0.0102244C52.2284 0.236504 50.9002 0.905058 49.8604 1.92332C48.45 3.26043 47.6984 5.14266 47.7911 7.08661C47.7396 9.04085 48.5014 10.9231 49.881 12.3013C50.9414 13.3093 52.2901 13.9573 53.7418 14.1527C51.7033 13.5356 50.5296 10.9231 50.5296 7.08661ZM59.6925 1.92332C58.6527 0.905058 57.3246 0.236504 55.8832 0.0102244C57.8908 0.658208 59.0233 3.16786 59.0233 7.08661C59.0233 10.9231 57.8393 13.5356 55.8111 14.163C57.2628 13.9676 58.6115 13.3196 59.6719 12.3116C61.0618 10.9334 61.8133 9.05113 61.7619 7.0969C61.8545 5.14266 61.0927 3.26043 59.6925 1.92332ZM45.5055 0.411357C45.5878 0.380501 45.6805 0.35993 45.7835 0.329073H41.5109C41.6138 0.35993 41.7168 0.380501 41.7889 0.411357C42.2727 0.58621 42.5816 1.06963 42.5301 1.5839V12.5893C42.5816 13.1036 42.2727 13.587 41.7889 13.7619C41.6962 13.7927 41.6035 13.8236 41.5109 13.8442H45.7835C45.6805 13.8133 45.5776 13.7927 45.5055 13.7619C45.0216 13.587 44.7127 13.1036 44.7642 12.5893V1.5839C44.723 1.06963 45.0216 0.58621 45.5055 0.411357ZM38.7414 13.299C38.3502 13.299 37.8354 13.1139 37.6089 12.2396C37.4957 11.8076 37.4133 11.3859 37.331 10.9437C37.228 10.3882 37.0942 9.82254 36.9397 9.19513C36.3941 7.00433 32.8628 7.07633 32.8628 7.07633C32.8628 7.07633 37.6707 6.59291 37.6707 3.29128C37.6707 2.59187 37.3413 0.318788 33.0996 0.318788H32.6981C34.1497 0.617066 34.9939 1.82046 34.9939 3.68213C34.9939 5.60551 33.9747 6.86033 32.1627 7.07633C34.16 7.24089 34.5615 9.05113 34.7674 10.8202C35.0557 13.1139 35.8381 14.1527 37.4545 14.1527C38.6179 14.2761 39.6783 13.5047 39.9357 12.3528C39.7607 12.8876 39.2871 13.2682 38.7414 13.299ZM30.464 12.5893V0.329073H27.2106C27.3136 0.35993 27.4062 0.380501 27.4886 0.411357C27.9725 0.58621 28.2814 1.06963 28.2299 1.5839V12.5893C28.2814 13.1036 27.9725 13.587 27.4886 13.7619C27.3959 13.7927 27.3033 13.8236 27.2106 13.8442H31.4832C31.3802 13.8133 31.2876 13.7927 31.2052 13.7619C30.7111 13.587 30.4125 13.1036 30.464 12.5893ZM23.4631 0.658208C23.9367 0.997627 24.1117 1.77932 24.1529 3.10614C24.1941 1.77932 24.3794 0.997627 24.853 0.658208C25.0898 0.514211 25.3472 0.401071 25.6149 0.329073H22.7013C22.9689 0.390786 23.2263 0.503926 23.4631 0.658208Z" fill="black"/>
</svg>
