<svg width="1000" height="1000" viewBox="0 0 1000 1000" fill="none" xmlns="http://www.w3.org/2000/svg">
<path d="M46.8378 441.686C48.2838 441.755 50.1773 441.824 52.5183 441.893C54.8594 441.962 57.166 441.996 59.4382 441.996C62.6744 441.996 65.7728 441.962 68.7335 441.893C71.6943 441.824 73.7944 441.789 75.0337 441.789C83.3651 441.789 89.5964 443.683 93.7277 447.47C97.859 451.257 99.9246 456.146 99.9246 462.136C99.9246 464.615 99.5115 467.231 98.6852 469.985C97.859 472.671 96.413 475.184 94.3474 477.525C92.3506 479.797 89.5964 481.656 86.0849 483.102C82.5733 484.548 78.1322 485.271 72.7615 485.271H62.8465V483.205H71.7287C76.6174 483.205 80.3355 482.276 82.8831 480.417C85.4996 478.558 87.2554 476.113 88.1505 473.084C89.1145 470.054 89.5964 466.784 89.5964 463.272C89.5964 456.731 88.2882 451.842 85.6717 448.606C83.1241 445.37 78.7174 443.752 72.4517 443.752C69.2844 443.752 67.2187 444.337 66.2548 445.508C65.2908 446.678 64.8088 449.054 64.8088 452.634V503.862C64.8088 506.34 65.0498 508.2 65.5318 509.439C66.0827 510.678 67.1155 511.505 68.6303 511.918C70.1451 512.331 72.3484 512.606 75.2403 512.744V514.81C73.4501 514.672 71.1779 514.603 68.4237 514.603C65.6695 514.534 62.8809 514.5 60.0579 514.5C57.3726 514.5 54.8594 514.534 52.5183 514.603C50.1773 514.603 48.2838 514.672 46.8378 514.81V512.744C49.1789 512.606 50.9347 512.331 52.1052 511.918C53.3446 511.505 54.1708 510.678 54.584 509.439C54.9971 508.2 55.2036 506.34 55.2036 503.862V452.634C55.2036 450.086 54.9971 448.227 54.584 447.057C54.1708 445.817 53.3446 444.991 52.1052 444.578C50.9347 444.096 49.1789 443.821 46.8378 443.752V441.686ZM134.105 441.17L159.306 506.134C160.339 508.75 161.509 510.506 162.818 511.401C164.126 512.228 165.331 512.675 166.432 512.744V514.81C165.055 514.672 163.368 514.603 161.372 514.603C159.375 514.534 157.378 514.5 155.381 514.5C152.696 514.5 150.183 514.534 147.842 514.603C145.501 514.603 143.607 514.672 142.161 514.81V512.744C145.673 512.606 147.911 512.021 148.874 510.988C149.838 509.886 149.632 507.58 148.255 504.068L129.044 452.737L130.697 451.395L112.726 498.078C111.624 500.832 110.97 503.173 110.764 505.101C110.557 506.96 110.729 508.441 111.28 509.542C111.9 510.644 112.898 511.436 114.275 511.918C115.721 512.4 117.511 512.675 119.646 512.744V514.81C117.718 514.672 115.687 514.603 113.552 514.603C111.487 514.534 109.559 514.5 107.768 514.5C106.047 514.5 104.567 514.534 103.327 514.603C102.157 514.603 101.055 514.672 100.022 514.81V512.744C101.399 512.4 102.811 511.608 104.257 510.368C105.703 509.06 107.011 506.857 108.181 503.758L132.453 441.17C132.728 441.17 133.004 441.17 133.279 441.17C133.554 441.17 133.83 441.17 134.105 441.17ZM146.706 485.064V487.13H115.928L116.96 485.064H146.706ZM170.187 441.686C171.633 441.755 173.526 441.824 175.867 441.893C178.208 441.962 180.515 441.996 182.787 441.996C186.023 441.996 189.122 441.962 192.083 441.893C195.043 441.824 197.143 441.789 198.383 441.789C203.96 441.789 208.573 442.581 212.222 444.165C215.941 445.749 218.695 447.917 220.485 450.672C222.344 453.357 223.274 456.387 223.274 459.76C223.274 461.826 222.86 464.029 222.034 466.37C221.208 468.712 219.762 470.915 217.696 472.98C215.7 475.046 212.945 476.767 209.434 478.145C205.922 479.453 201.481 480.107 196.111 480.107H186.195V478.041H195.078C199.966 478.041 203.685 477.284 206.232 475.769C208.849 474.185 210.604 472.12 211.499 469.572C212.463 466.956 212.945 464.064 212.945 460.897C212.945 455.457 211.637 451.257 209.021 448.296C206.473 445.267 202.066 443.752 195.801 443.752C192.633 443.752 190.568 444.337 189.604 445.508C188.64 446.678 188.158 449.054 188.158 452.634V503.862C188.158 506.34 188.364 508.2 188.778 509.439C189.191 510.678 189.982 511.505 191.153 511.918C192.392 512.331 194.183 512.606 196.524 512.744V514.81C194.94 514.672 192.943 514.603 190.533 514.603C188.192 514.534 185.817 514.5 183.407 514.5C180.722 514.5 178.208 514.534 175.867 514.603C173.526 514.603 171.633 514.672 170.187 514.81V512.744C172.528 512.606 174.284 512.331 175.454 511.918C176.694 511.505 177.52 510.678 177.933 509.439C178.346 508.2 178.553 506.34 178.553 503.862V452.634C178.553 450.086 178.346 448.227 177.933 447.057C177.52 445.817 176.694 444.991 175.454 444.578C174.284 444.096 172.528 443.821 170.187 443.752V441.686ZM186.609 478.351C190.327 478.489 193.253 478.661 195.388 478.868C197.522 479.005 199.243 479.143 200.552 479.281C201.929 479.418 203.237 479.591 204.476 479.797C209.09 480.554 212.395 481.966 214.391 484.032C216.457 486.028 217.972 489.161 218.936 493.43L221.518 503.965C222.206 506.995 222.895 509.198 223.583 510.575C224.341 511.883 225.477 512.503 226.992 512.434C228.162 512.365 229.126 511.987 229.884 511.298C230.71 510.609 231.571 509.68 232.466 508.509L234.015 509.645C232.569 511.78 231.054 513.432 229.471 514.603C227.956 515.705 225.787 516.256 222.964 516.256C220.416 516.256 218.178 515.498 216.25 513.983C214.323 512.469 212.877 509.508 211.913 505.101L209.64 494.773C209.021 491.812 208.298 489.265 207.472 487.13C206.714 484.927 205.612 483.205 204.166 481.966C202.789 480.727 200.724 480.107 197.97 480.107H186.815L186.609 478.351ZM270.312 441.17L295.513 506.134C296.545 508.75 297.716 510.506 299.024 511.401C300.332 512.228 301.537 512.675 302.639 512.744V514.81C301.262 514.672 299.575 514.603 297.578 514.603C295.582 514.534 293.585 514.5 291.588 514.5C288.903 514.5 286.389 514.534 284.048 514.603C281.707 514.603 279.814 514.672 278.368 514.81V512.744C281.879 512.606 284.117 512.021 285.081 510.988C286.045 509.886 285.839 507.58 284.462 504.068L265.251 452.737L266.904 451.395L248.933 498.078C247.831 500.832 247.177 503.173 246.97 505.101C246.764 506.96 246.936 508.441 247.487 509.542C248.106 510.644 249.105 511.436 250.482 511.918C251.928 512.4 253.718 512.675 255.853 512.744V514.81C253.925 514.672 251.893 514.603 249.759 514.603C247.693 514.534 245.765 514.5 243.975 514.5C242.254 514.5 240.773 514.534 239.534 514.603C238.363 514.603 237.262 514.672 236.229 514.81V512.744C237.606 512.4 239.018 511.608 240.464 510.368C241.909 509.06 243.218 506.857 244.388 503.758L268.659 441.17C268.935 441.17 269.21 441.17 269.486 441.17C269.761 441.17 270.037 441.17 270.312 441.17ZM282.912 485.064V487.13H252.134L253.167 485.064H282.912ZM334.589 441.686C346.914 441.686 356.072 444.785 362.062 450.981C368.053 457.11 371.048 465.923 371.048 477.422C371.048 484.927 369.568 491.502 366.607 497.148C363.715 502.726 359.48 507.063 353.903 510.162C348.326 513.26 341.578 514.81 333.66 514.81C332.627 514.81 331.25 514.775 329.529 514.706C327.807 514.637 326.017 514.603 324.158 514.603C322.368 514.534 320.715 514.5 319.2 514.5C316.791 514.5 314.415 514.534 312.074 514.603C309.733 514.603 307.839 514.672 306.394 514.81V512.744C308.735 512.606 310.49 512.331 311.661 511.918C312.9 511.505 313.727 510.678 314.14 509.439C314.553 508.2 314.759 506.34 314.759 503.862V452.634C314.759 450.086 314.553 448.227 314.14 447.057C313.727 445.817 312.9 444.991 311.661 444.578C310.49 444.096 308.735 443.821 306.394 443.752V441.686C307.839 441.755 309.733 441.858 312.074 441.996C314.415 442.065 316.722 442.065 318.994 441.996C321.404 441.927 324.124 441.858 327.153 441.789C330.183 441.721 332.662 441.686 334.589 441.686ZM332.007 443.545C328.84 443.545 326.774 444.13 325.811 445.301C324.847 446.472 324.365 448.847 324.365 452.427V504.068C324.365 507.649 324.847 510.024 325.811 511.195C326.843 512.365 328.943 512.951 332.111 512.951C339.616 512.951 345.434 511.608 349.565 508.923C353.697 506.168 356.588 502.175 358.241 496.942C359.893 491.709 360.72 485.34 360.72 477.835C360.72 470.123 359.79 463.754 357.931 458.728C356.141 453.632 353.146 449.845 348.946 447.367C344.814 444.819 339.168 443.545 332.007 443.545ZM408.525 441.686V443.752C406.184 443.821 404.394 444.096 403.155 444.578C401.984 444.991 401.192 445.817 400.779 447.057C400.366 448.227 400.16 450.086 400.16 452.634V503.862C400.16 506.34 400.366 508.2 400.779 509.439C401.192 510.678 401.984 511.505 403.155 511.918C404.394 512.331 406.184 512.606 408.525 512.744V514.81C406.942 514.672 404.945 514.603 402.535 514.603C400.194 514.534 397.819 514.5 395.409 514.5C392.723 514.5 390.21 514.534 387.869 514.603C385.528 514.603 383.635 514.672 382.189 514.81V512.744C384.53 512.606 386.285 512.331 387.456 511.918C388.695 511.505 389.522 510.678 389.935 509.439C390.348 508.2 390.554 506.34 390.554 503.862V452.634C390.554 450.086 390.348 448.227 389.935 447.057C389.522 445.817 388.695 444.991 387.456 444.578C386.285 444.096 384.53 443.821 382.189 443.752V441.686C383.635 441.755 385.528 441.824 387.869 441.893C390.21 441.962 392.723 441.996 395.409 441.996C397.819 441.996 400.194 441.962 402.535 441.893C404.945 441.824 406.942 441.755 408.525 441.686ZM441.355 440.55C444.798 440.55 447.414 440.963 449.205 441.789C450.995 442.547 452.579 443.407 453.956 444.371C454.782 444.853 455.436 445.232 455.918 445.508C456.469 445.714 456.985 445.817 457.467 445.817C458.156 445.817 458.638 445.439 458.913 444.681C459.257 443.924 459.533 442.788 459.739 441.273H462.115C462.046 442.444 461.943 443.855 461.805 445.508C461.736 447.091 461.667 449.226 461.598 451.911C461.598 454.527 461.598 458.005 461.598 462.342H459.223C459.016 459.037 458.293 455.87 457.054 452.841C455.815 449.811 453.99 447.332 451.58 445.404C449.239 443.476 446.141 442.512 442.285 442.512C438.636 442.512 435.606 443.614 433.196 445.817C430.855 448.021 429.684 450.913 429.684 454.493C429.684 457.592 430.476 460.208 432.06 462.342C433.644 464.408 435.744 466.302 438.36 468.023C441.045 469.675 443.937 471.466 447.036 473.394C450.616 475.597 453.784 477.8 456.538 480.004C459.361 482.138 461.564 484.514 463.148 487.13C464.8 489.747 465.626 492.914 465.626 496.632C465.626 501.039 464.628 504.688 462.631 507.58C460.635 510.472 457.984 512.641 454.679 514.087C451.374 515.533 447.724 516.256 443.731 516.256C440.081 516.256 437.19 515.842 435.055 515.016C432.921 514.19 431.096 513.329 429.581 512.434C428.066 511.47 426.896 510.988 426.07 510.988C425.381 510.988 424.865 511.367 424.52 512.124C424.245 512.882 424.004 514.018 423.797 515.533H421.422C421.56 514.087 421.628 512.4 421.628 510.472C421.697 508.475 421.732 505.893 421.732 502.726C421.801 499.558 421.835 495.565 421.835 490.745H424.211C424.486 494.876 425.243 498.732 426.483 502.312C427.791 505.893 429.753 508.785 432.37 510.988C435.055 513.123 438.601 514.19 443.008 514.19C445.28 514.19 447.414 513.742 449.411 512.847C451.477 511.883 453.164 510.403 454.472 508.406C455.78 506.34 456.434 503.69 456.434 500.453C456.434 497.63 455.746 495.186 454.369 493.12C453.061 490.986 451.201 489.024 448.792 487.233C446.382 485.374 443.559 483.481 440.322 481.553C437.086 479.556 434.057 477.525 431.234 475.459C428.411 473.394 426.138 471.018 424.417 468.333C422.765 465.579 421.938 462.274 421.938 458.418C421.938 454.355 422.833 451.016 424.624 448.399C426.483 445.714 428.893 443.752 431.853 442.512C434.814 441.204 437.981 440.55 441.355 440.55ZM528.632 441.686C528.357 444.096 528.15 446.437 528.013 448.709C527.944 450.981 527.909 452.703 527.909 453.873C527.909 455.113 527.944 456.318 528.013 457.488C528.081 458.59 528.15 459.519 528.219 460.277H525.844C525.431 456.214 524.845 453.013 524.088 450.672C523.331 448.262 522.022 446.575 520.163 445.611C518.373 444.578 515.653 444.062 512.004 444.062H503.432C501.091 444.062 499.3 444.268 498.061 444.681C496.89 445.026 496.099 445.817 495.685 447.057C495.272 448.227 495.066 450.086 495.066 452.634V503.862C495.066 506.34 495.272 508.2 495.685 509.439C496.099 510.678 496.89 511.505 498.061 511.918C499.3 512.262 501.091 512.434 503.432 512.434H510.971C515.309 512.434 518.58 511.849 520.783 510.678C523.055 509.508 524.673 507.614 525.637 504.998C526.67 502.312 527.427 498.698 527.909 494.153H530.285C530.078 496.012 529.975 498.491 529.975 501.59C529.975 502.898 530.009 504.791 530.078 507.27C530.216 509.68 530.423 512.193 530.698 514.81C527.186 514.672 523.227 514.603 518.821 514.603C514.414 514.534 510.489 514.5 507.046 514.5C505.532 514.5 503.569 514.5 501.159 514.5C498.818 514.5 496.271 514.534 493.517 514.603C490.762 514.603 487.974 514.637 485.151 514.706C482.328 514.706 479.642 514.741 477.095 514.81V512.744C479.436 512.606 481.192 512.331 482.362 511.918C483.602 511.505 484.428 510.678 484.841 509.439C485.254 508.2 485.461 506.34 485.461 503.862V452.634C485.461 450.086 485.254 448.227 484.841 447.057C484.428 445.817 483.602 444.991 482.362 444.578C481.192 444.096 479.436 443.821 477.095 443.752V441.686C479.642 441.755 482.328 441.824 485.151 441.893C487.974 441.893 490.762 441.927 493.517 441.996C496.271 441.996 498.818 441.996 501.159 441.996C503.569 441.996 505.532 441.996 507.046 441.996C510.214 441.996 513.794 441.996 517.788 441.996C521.85 441.927 525.465 441.824 528.632 441.686ZM510.868 477.008C510.868 477.008 510.868 477.353 510.868 478.041C510.868 478.73 510.868 479.074 510.868 479.074H491.967C491.967 479.074 491.967 478.73 491.967 478.041C491.967 477.353 491.967 477.008 491.967 477.008H510.868ZM513.863 463.375C513.588 467.3 513.45 470.295 513.45 472.361C513.519 474.426 513.553 476.32 513.553 478.041C513.553 479.763 513.588 481.656 513.656 483.722C513.725 485.787 513.897 488.783 514.173 492.707H511.797C511.522 490.504 511.178 488.369 510.765 486.304C510.42 484.169 509.594 482.448 508.286 481.14C507.046 479.763 504.912 479.074 501.882 479.074V477.008C504.155 477.008 505.876 476.561 507.046 475.666C508.286 474.702 509.181 473.497 509.732 472.051C510.283 470.605 510.661 469.125 510.868 467.61C511.074 466.026 511.281 464.615 511.488 463.375H513.863ZM569.883 441.686C571.329 441.755 573.222 441.824 575.563 441.893C577.904 441.962 580.211 441.996 582.483 441.996C585.719 441.996 588.818 441.962 591.779 441.893C594.739 441.824 596.839 441.789 598.079 441.789C605.308 441.789 610.748 443.304 614.397 446.334C618.047 449.363 619.871 453.254 619.871 458.005C619.871 460.415 619.355 462.79 618.322 465.131C617.358 467.403 615.706 469.503 613.364 471.431C611.092 473.29 608.028 474.805 604.172 475.976V476.182C609.612 476.871 613.846 478.179 616.876 480.107C619.974 481.966 622.143 484.169 623.383 486.717C624.622 489.265 625.242 491.95 625.242 494.773C625.242 498.698 624.243 502.175 622.247 505.204C620.319 508.165 617.496 510.506 613.778 512.228C610.059 513.949 605.618 514.81 600.454 514.81C598.939 514.81 596.667 514.775 593.638 514.706C590.608 514.569 586.959 514.5 582.69 514.5C580.28 514.5 577.904 514.534 575.563 514.603C573.222 514.603 571.329 514.672 569.883 514.81V512.744C572.224 512.606 573.98 512.331 575.15 511.918C576.39 511.505 577.216 510.678 577.629 509.439C578.042 508.2 578.249 506.34 578.249 503.862V452.634C578.249 450.086 578.042 448.227 577.629 447.057C577.216 445.817 576.39 444.991 575.15 444.578C573.98 444.096 572.224 443.821 569.883 443.752V441.686ZM595.497 443.752C592.329 443.752 590.264 444.337 589.3 445.508C588.336 446.678 587.854 449.054 587.854 452.634V503.862C587.854 506.272 588.06 508.096 588.474 509.336C588.887 510.575 589.644 511.401 590.746 511.814C591.847 512.228 593.466 512.434 595.6 512.434C602.348 512.434 607.236 510.885 610.266 507.786C613.364 504.619 614.914 500.144 614.914 494.36C614.914 489.058 613.468 484.961 610.576 482.069C607.753 479.177 603.071 477.731 596.53 477.731H585.892C585.892 477.731 585.892 477.456 585.892 476.905C585.892 476.286 585.892 475.976 585.892 475.976H594.774C598.836 475.976 601.969 475.218 604.172 473.703C606.376 472.12 607.891 470.054 608.717 467.507C609.543 464.89 609.956 462.101 609.956 459.141C609.956 454.046 608.82 450.224 606.548 447.676C604.345 445.06 600.661 443.752 595.497 443.752ZM635.592 441.686C637.038 441.755 638.931 441.824 641.272 441.893C643.613 441.962 645.92 441.996 648.192 441.996C651.428 441.996 654.527 441.962 657.488 441.893C660.448 441.824 662.548 441.789 663.788 441.789C669.365 441.789 673.978 442.581 677.627 444.165C681.346 445.749 684.1 447.917 685.89 450.672C687.749 453.357 688.679 456.387 688.679 459.76C688.679 461.826 688.265 464.029 687.439 466.37C686.613 468.712 685.167 470.915 683.101 472.98C681.105 475.046 678.35 476.767 674.839 478.145C671.327 479.453 666.886 480.107 661.516 480.107H651.6V478.041H660.483C665.371 478.041 669.089 477.284 671.637 475.769C674.254 474.185 676.009 472.12 676.904 469.572C677.868 466.956 678.35 464.064 678.35 460.897C678.35 455.457 677.042 451.257 674.426 448.296C671.878 445.267 667.471 443.752 661.206 443.752C658.038 443.752 655.973 444.337 655.009 445.508C654.045 446.678 653.563 449.054 653.563 452.634V503.862C653.563 506.34 653.769 508.2 654.183 509.439C654.596 510.678 655.387 511.505 656.558 511.918C657.797 512.331 659.588 512.606 661.929 512.744V514.81C660.345 514.672 658.348 514.603 655.938 514.603C653.597 514.534 651.222 514.5 648.812 514.5C646.127 514.5 643.613 514.534 641.272 514.603C638.931 514.603 637.038 514.672 635.592 514.81V512.744C637.933 512.606 639.689 512.331 640.859 511.918C642.099 511.505 642.925 510.678 643.338 509.439C643.751 508.2 643.958 506.34 643.958 503.862V452.634C643.958 450.086 643.751 448.227 643.338 447.057C642.925 445.817 642.099 444.991 640.859 444.578C639.689 444.096 637.933 443.821 635.592 443.752V441.686ZM652.014 478.351C655.732 478.489 658.658 478.661 660.793 478.868C662.927 479.005 664.648 479.143 665.957 479.281C667.334 479.418 668.642 479.591 669.881 479.797C674.495 480.554 677.8 481.966 679.796 484.032C681.862 486.028 683.377 489.161 684.341 493.43L686.923 503.965C687.611 506.995 688.3 509.198 688.988 510.575C689.746 511.883 690.882 512.503 692.397 512.434C693.567 512.365 694.531 511.987 695.289 511.298C696.115 510.609 696.976 509.68 697.871 508.509L699.42 509.645C697.974 511.78 696.459 513.432 694.875 514.603C693.361 515.705 691.192 516.256 688.369 516.256C685.821 516.256 683.583 515.498 681.655 513.983C679.728 512.469 678.282 509.508 677.318 505.101L675.045 494.773C674.426 491.812 673.703 489.265 672.876 487.13C672.119 484.927 671.017 483.205 669.571 481.966C668.194 480.727 666.129 480.107 663.375 480.107H652.22L652.014 478.351ZM756.167 441.686C755.891 444.096 755.685 446.437 755.547 448.709C755.478 450.981 755.444 452.703 755.444 453.873C755.444 455.113 755.478 456.318 755.547 457.488C755.616 458.59 755.685 459.519 755.754 460.277H753.378C752.965 456.214 752.38 453.013 751.622 450.672C750.865 448.262 749.557 446.575 747.698 445.611C745.907 444.578 743.188 444.062 739.538 444.062H730.966C728.625 444.062 726.835 444.268 725.595 444.681C724.425 445.026 723.633 445.817 723.22 447.057C722.807 448.227 722.6 450.086 722.6 452.634V503.862C722.6 506.34 722.807 508.2 723.22 509.439C723.633 510.678 724.425 511.505 725.595 511.918C726.835 512.262 728.625 512.434 730.966 512.434H738.506C742.843 512.434 746.114 511.849 748.317 510.678C750.59 509.508 752.208 507.614 753.172 504.998C754.204 502.312 754.962 498.698 755.444 494.153H757.819C757.613 496.012 757.509 498.491 757.509 501.59C757.509 502.898 757.544 504.791 757.613 507.27C757.75 509.68 757.957 512.193 758.232 514.81C754.721 514.672 750.762 514.603 746.355 514.603C741.948 514.534 738.024 514.5 734.581 514.5C733.066 514.5 731.104 514.5 728.694 514.5C726.353 514.5 723.805 514.534 721.051 514.603C718.297 514.603 715.508 514.637 712.685 514.706C709.862 514.706 707.177 514.741 704.629 514.81V512.744C706.97 512.606 708.726 512.331 709.897 511.918C711.136 511.505 711.962 510.678 712.375 509.439C712.788 508.2 712.995 506.34 712.995 503.862V452.634C712.995 450.086 712.788 448.227 712.375 447.057C711.962 445.817 711.136 444.991 709.897 444.578C708.726 444.096 706.97 443.821 704.629 443.752V441.686C707.177 441.755 709.862 441.824 712.685 441.893C715.508 441.893 718.297 441.927 721.051 441.996C723.805 441.996 726.353 441.996 728.694 441.996C731.104 441.996 733.066 441.996 734.581 441.996C737.748 441.996 741.329 441.996 745.322 441.996C749.385 441.927 752.999 441.824 756.167 441.686ZM738.402 477.008C738.402 477.008 738.402 477.353 738.402 478.041C738.402 478.73 738.402 479.074 738.402 479.074H719.502C719.502 479.074 719.502 478.73 719.502 478.041C719.502 477.353 719.502 477.008 719.502 477.008H738.402ZM741.397 463.375C741.122 467.3 740.984 470.295 740.984 472.361C741.053 474.426 741.088 476.32 741.088 478.041C741.088 479.763 741.122 481.656 741.191 483.722C741.26 485.787 741.432 488.783 741.707 492.707H739.332C739.056 490.504 738.712 488.369 738.299 486.304C737.955 484.169 737.128 482.448 735.82 481.14C734.581 479.763 732.446 479.074 729.417 479.074V477.008C731.689 477.008 733.41 476.561 734.581 475.666C735.82 474.702 736.715 473.497 737.266 472.051C737.817 470.605 738.196 469.125 738.402 467.61C738.609 466.026 738.815 464.615 739.022 463.375H741.397ZM821.17 441.686C820.894 444.096 820.688 446.437 820.55 448.709C820.481 450.981 820.447 452.703 820.447 453.873C820.447 455.113 820.481 456.318 820.55 457.488C820.619 458.59 820.688 459.519 820.756 460.277H818.381C817.968 456.214 817.383 453.013 816.625 450.672C815.868 448.262 814.56 446.575 812.7 445.611C810.91 444.578 808.191 444.062 804.541 444.062H795.969C793.628 444.062 791.838 444.268 790.598 444.681C789.428 445.026 788.636 445.817 788.223 447.057C787.81 448.227 787.603 450.086 787.603 452.634V503.862C787.603 506.34 787.81 508.2 788.223 509.439C788.636 510.678 789.428 511.505 790.598 511.918C791.838 512.262 793.628 512.434 795.969 512.434H803.508C807.846 512.434 811.117 511.849 813.32 510.678C815.592 509.508 817.21 507.614 818.174 504.998C819.207 502.312 819.965 498.698 820.447 494.153H822.822C822.616 496.012 822.512 498.491 822.512 501.59C822.512 502.898 822.547 504.791 822.616 507.27C822.753 509.68 822.96 512.193 823.235 514.81C819.724 514.672 815.765 514.603 811.358 514.603C806.951 514.534 803.026 514.5 799.584 514.5C798.069 514.5 796.107 514.5 793.697 514.5C791.356 514.5 788.808 514.534 786.054 514.603C783.3 514.603 780.511 514.637 777.688 514.706C774.865 514.706 772.18 514.741 769.632 514.81V512.744C771.973 512.606 773.729 512.331 774.899 511.918C776.139 511.505 776.965 510.678 777.378 509.439C777.791 508.2 777.998 506.34 777.998 503.862V452.634C777.998 450.086 777.791 448.227 777.378 447.057C776.965 445.817 776.139 444.991 774.899 444.578C773.729 444.096 771.973 443.821 769.632 443.752V441.686C772.18 441.755 774.865 441.824 777.688 441.893C780.511 441.893 783.3 441.927 786.054 441.996C788.808 441.996 791.356 441.996 793.697 441.996C796.107 441.996 798.069 441.996 799.584 441.996C802.751 441.996 806.331 441.996 810.325 441.996C814.387 441.927 818.002 441.824 821.17 441.686ZM803.405 477.008C803.405 477.008 803.405 477.353 803.405 478.041C803.405 478.73 803.405 479.074 803.405 479.074H784.505C784.505 479.074 784.505 478.73 784.505 478.041C784.505 477.353 784.505 477.008 784.505 477.008H803.405ZM806.4 463.375C806.125 467.3 805.987 470.295 805.987 472.361C806.056 474.426 806.09 476.32 806.09 478.041C806.09 479.763 806.125 481.656 806.194 483.722C806.263 485.787 806.435 488.783 806.71 492.707H804.335C804.059 490.504 803.715 488.369 803.302 486.304C802.958 484.169 802.131 482.448 800.823 481.14C799.584 479.763 797.449 479.074 794.42 479.074V477.008C796.692 477.008 798.413 476.561 799.584 475.666C800.823 474.702 801.718 473.497 802.269 472.051C802.82 470.605 803.199 469.125 803.405 467.61C803.612 466.026 803.818 464.615 804.025 463.375H806.4ZM887.102 441.686V443.752L845.893 512.434H866.136C869.372 512.434 871.988 512.09 873.985 511.401C876.051 510.713 877.669 509.645 878.84 508.2C880.079 506.685 881.008 504.688 881.628 502.209C882.248 499.73 882.73 496.701 883.074 493.12H885.45C885.243 495.255 885.14 498.078 885.14 501.59C885.14 502.898 885.174 504.791 885.243 507.27C885.381 509.68 885.587 512.193 885.863 514.81C883.315 514.672 880.526 514.603 877.497 514.603C874.467 514.534 871.438 514.5 868.408 514.5C865.447 514.5 862.693 514.5 860.146 514.5C856.083 514.5 851.78 514.534 847.235 514.603C842.76 514.603 838.56 514.672 834.635 514.81V512.744L876.154 444.062H856.014C852.778 444.062 850.127 444.406 848.062 445.094C846.065 445.783 844.447 446.885 843.207 448.399C842.037 449.845 841.142 451.808 840.522 454.287C839.902 456.765 839.42 459.795 839.076 463.375H836.701C836.838 462.274 836.907 461 836.907 459.554C836.976 458.108 837.01 456.559 837.01 454.906C837.01 453.598 836.942 451.739 836.804 449.329C836.735 446.85 836.563 444.303 836.287 441.686C838.835 441.755 841.624 441.824 844.653 441.893C847.683 441.962 850.712 441.996 853.742 441.996C856.772 441.996 859.526 441.996 862.005 441.996C865.929 441.996 870.129 441.996 874.605 441.996C879.149 441.927 883.315 441.824 887.102 441.686ZM949.562 441.686C949.286 444.096 949.08 446.437 948.942 448.709C948.873 450.981 948.839 452.703 948.839 453.873C948.839 455.113 948.873 456.318 948.942 457.488C949.011 458.59 949.08 459.519 949.148 460.277H946.773C946.36 456.214 945.775 453.013 945.017 450.672C944.26 448.262 942.952 446.575 941.093 445.611C939.302 444.578 936.583 444.062 932.933 444.062H924.361C922.02 444.062 920.23 444.268 918.99 444.681C917.82 445.026 917.028 445.817 916.615 447.057C916.202 448.227 915.995 450.086 915.995 452.634V503.862C915.995 506.34 916.202 508.2 916.615 509.439C917.028 510.678 917.82 511.505 918.99 511.918C920.23 512.262 922.02 512.434 924.361 512.434H931.9C936.238 512.434 939.509 511.849 941.712 510.678C943.984 509.508 945.602 507.614 946.566 504.998C947.599 502.312 948.357 498.698 948.839 494.153H951.214C951.008 496.012 950.904 498.491 950.904 501.59C950.904 502.898 950.939 504.791 951.008 507.27C951.145 509.68 951.352 512.193 951.627 514.81C948.116 514.672 944.157 514.603 939.75 514.603C935.343 514.534 931.418 514.5 927.976 514.5C926.461 514.5 924.499 514.5 922.089 514.5C919.748 514.5 917.2 514.534 914.446 514.603C911.692 514.603 908.903 514.637 906.08 514.706C903.257 514.706 900.572 514.741 898.024 514.81V512.744C900.365 512.606 902.121 512.331 903.291 511.918C904.531 511.505 905.357 510.678 905.77 509.439C906.183 508.2 906.39 506.34 906.39 503.862V452.634C906.39 450.086 906.183 448.227 905.77 447.057C905.357 445.817 904.531 444.991 903.291 444.578C902.121 444.096 900.365 443.821 898.024 443.752V441.686C900.572 441.755 903.257 441.824 906.08 441.893C908.903 441.893 911.692 441.927 914.446 441.996C917.2 441.996 919.748 441.996 922.089 441.996C924.499 441.996 926.461 441.996 927.976 441.996C931.143 441.996 934.723 441.996 938.717 441.996C942.779 441.927 946.394 441.824 949.562 441.686ZM931.797 477.008C931.797 477.008 931.797 477.353 931.797 478.041C931.797 478.73 931.797 479.074 931.797 479.074H912.897C912.897 479.074 912.897 478.73 912.897 478.041C912.897 477.353 912.897 477.008 912.897 477.008H931.797ZM934.792 463.375C934.517 467.3 934.379 470.295 934.379 472.361C934.448 474.426 934.482 476.32 934.482 478.041C934.482 479.763 934.517 481.656 934.586 483.722C934.655 485.787 934.827 488.783 935.102 492.707H932.727C932.451 490.504 932.107 488.369 931.694 486.304C931.35 484.169 930.523 482.448 929.215 481.14C927.976 479.763 925.841 479.074 922.812 479.074V477.008C925.084 477.008 926.805 476.561 927.976 475.666C929.215 474.702 930.11 473.497 930.661 472.051C931.212 470.605 931.591 469.125 931.797 467.61C932.004 466.026 932.21 464.615 932.417 463.375H934.792Z" fill="white"/>
<path d="M317.933 586.693C317.632 586.693 317.396 586.607 317.224 586.436C317.052 586.242 316.966 585.984 316.966 585.662V564.802C316.966 564.458 317.052 564.2 317.224 564.028C317.418 563.856 317.665 563.77 317.966 563.77H325.542C327.95 563.77 329.798 564.329 331.088 565.447C332.377 566.564 333.022 568.155 333.022 570.218C333.022 571.551 332.732 572.701 332.152 573.668C331.571 574.614 330.712 575.334 329.572 575.828C328.455 576.323 327.111 576.57 325.542 576.57L325.897 576.151H326.348C327.165 576.151 327.874 576.366 328.476 576.795C329.1 577.225 329.658 577.924 330.153 578.891L333.57 585.243C333.721 585.479 333.785 585.715 333.764 585.952C333.764 586.167 333.689 586.35 333.538 586.5C333.388 586.629 333.194 586.693 332.958 586.693C332.678 586.693 332.442 586.629 332.248 586.5C332.077 586.371 331.926 586.188 331.797 585.952L328.186 579.214C327.627 578.182 327.004 577.505 326.316 577.182C325.628 576.838 324.704 576.666 323.543 576.666H318.933V585.662C318.933 585.984 318.847 586.242 318.675 586.436C318.525 586.607 318.277 586.693 317.933 586.693ZM318.933 574.99H325.284C327.197 574.99 328.627 574.592 329.572 573.797C330.54 572.98 331.023 571.787 331.023 570.218C331.023 568.671 330.54 567.499 329.572 566.704C328.627 565.887 327.197 565.479 325.284 565.479H318.933V574.99ZM340.668 586.5C340.324 586.5 340.055 586.403 339.862 586.21C339.668 586.016 339.571 585.737 339.571 585.372V564.898C339.571 564.533 339.668 564.254 339.862 564.06C340.055 563.867 340.324 563.77 340.668 563.77H352.855C353.156 563.77 353.381 563.845 353.532 563.996C353.682 564.146 353.758 564.35 353.758 564.608C353.758 564.909 353.682 565.135 353.532 565.285C353.381 565.414 353.156 565.479 352.855 565.479H341.506V574.119H352.21C352.511 574.119 352.737 574.195 352.887 574.345C353.038 574.474 353.113 574.678 353.113 574.958C353.113 575.237 353.038 575.452 352.887 575.603C352.737 575.753 352.511 575.828 352.21 575.828H341.506V584.791H352.855C353.156 584.791 353.381 584.866 353.532 585.017C353.682 585.146 353.758 585.35 353.758 585.629C353.758 585.909 353.682 586.124 353.532 586.274C353.381 586.425 353.156 586.5 352.855 586.5H340.668ZM360.437 586.5C360.136 586.5 359.889 586.414 359.695 586.242C359.524 586.049 359.438 585.791 359.438 585.468V564.641C359.438 564.297 359.524 564.039 359.695 563.867C359.867 563.695 360.104 563.609 360.405 563.609C360.727 563.609 360.974 563.695 361.146 563.867C361.318 564.039 361.404 564.297 361.404 564.641V584.727H372.495C372.818 584.727 373.054 584.802 373.204 584.952C373.376 585.103 373.462 585.318 373.462 585.597C373.462 585.898 373.376 586.124 373.204 586.274C373.054 586.425 372.818 586.5 372.495 586.5H360.437ZM376.42 586.693C376.14 586.693 375.914 586.629 375.742 586.5C375.592 586.393 375.506 586.231 375.485 586.016C375.485 585.801 375.538 585.565 375.646 585.307L384.705 564.479C384.856 564.157 385.039 563.931 385.254 563.802C385.469 563.652 385.683 563.577 385.898 563.577C386.156 563.577 386.382 563.652 386.575 563.802C386.79 563.931 386.962 564.157 387.091 564.479L396.151 585.307C396.28 585.565 396.334 585.801 396.312 586.016C396.312 586.231 396.237 586.393 396.087 586.5C395.958 586.629 395.753 586.693 395.474 586.693C395.173 586.693 394.926 586.618 394.732 586.468C394.561 586.296 394.41 586.07 394.281 585.791L391.799 579.955L392.862 580.439H378.902L379.998 579.955L377.516 585.791C377.387 586.113 377.226 586.35 377.032 586.5C376.86 586.629 376.656 586.693 376.42 586.693ZM385.866 566.22L380.385 579.117L379.644 578.73H392.121L391.444 579.117L385.931 566.22H385.866ZM400.379 586.693C400.099 586.693 399.874 586.629 399.702 586.5C399.551 586.35 399.465 586.178 399.444 585.984C399.422 585.769 399.487 585.554 399.637 585.339L407.633 574.539V575.183L400.153 565.027C399.981 564.77 399.895 564.533 399.895 564.318C399.917 564.103 400.013 563.931 400.185 563.802C400.357 563.652 400.561 563.577 400.798 563.577C401.034 563.577 401.228 563.63 401.378 563.738C401.55 563.824 401.722 563.985 401.894 564.221L408.89 573.765H408.278L415.21 564.221C415.36 563.985 415.521 563.824 415.693 563.738C415.865 563.63 416.069 563.577 416.306 563.577C416.564 563.577 416.768 563.641 416.918 563.77C417.09 563.899 417.176 564.082 417.176 564.318C417.198 564.533 417.123 564.77 416.951 565.027L409.438 575.183V574.539L417.434 585.339C417.606 585.554 417.681 585.769 417.66 585.984C417.638 586.178 417.542 586.35 417.37 586.5C417.198 586.629 416.972 586.693 416.693 586.693C416.499 586.693 416.306 586.64 416.112 586.532C415.94 586.425 415.768 586.264 415.596 586.049L408.117 575.828H408.955L401.475 586.049C401.324 586.264 401.152 586.425 400.959 586.532C400.766 586.64 400.572 586.693 400.379 586.693Z" fill="white"/>
<rect x="439" y="559.5" width="2" height="32" fill="white"/>
<path d="M464.933 586.693C464.632 586.693 464.396 586.607 464.224 586.436C464.052 586.242 463.966 585.984 463.966 585.662V564.802C463.966 564.458 464.052 564.2 464.224 564.028C464.418 563.856 464.665 563.77 464.966 563.77H472.542C474.95 563.77 476.798 564.35 478.088 565.511C479.377 566.672 480.022 568.327 480.022 570.476C480.022 572.604 479.377 574.259 478.088 575.441C476.798 576.602 474.95 577.182 472.542 577.182H465.933V585.662C465.933 585.984 465.847 586.242 465.675 586.436C465.525 586.607 465.277 586.693 464.933 586.693ZM465.933 575.441H472.381C474.251 575.441 475.659 575.022 476.605 574.184C477.55 573.346 478.023 572.11 478.023 570.476C478.023 568.843 477.55 567.607 476.605 566.768C475.659 565.909 474.251 565.479 472.381 565.479H465.933V575.441ZM486.374 586.5C486.074 586.5 485.826 586.414 485.633 586.242C485.461 586.049 485.375 585.791 485.375 585.468V564.641C485.375 564.297 485.461 564.039 485.633 563.867C485.805 563.695 486.041 563.609 486.342 563.609C486.665 563.609 486.912 563.695 487.084 563.867C487.256 564.039 487.342 564.297 487.342 564.641V584.727H498.433C498.755 584.727 498.992 584.802 499.142 584.952C499.314 585.103 499.4 585.318 499.4 585.597C499.4 585.898 499.314 586.124 499.142 586.274C498.992 586.425 498.755 586.5 498.433 586.5H486.374ZM502.357 586.693C502.078 586.693 501.852 586.629 501.68 586.5C501.529 586.393 501.444 586.231 501.422 586.016C501.422 585.801 501.476 585.565 501.583 585.307L510.643 564.479C510.793 564.157 510.976 563.931 511.191 563.802C511.406 563.652 511.621 563.577 511.836 563.577C512.094 563.577 512.32 563.652 512.513 563.802C512.728 563.931 512.9 564.157 513.029 564.479L522.089 585.307C522.218 585.565 522.271 585.801 522.25 586.016C522.25 586.231 522.175 586.393 522.024 586.5C521.895 586.629 521.691 586.693 521.412 586.693C521.111 586.693 520.863 586.618 520.67 586.468C520.498 586.296 520.348 586.07 520.219 585.791L517.736 579.955L518.8 580.439H504.84L505.936 579.955L503.453 585.791C503.324 586.113 503.163 586.35 502.97 586.5C502.798 586.629 502.593 586.693 502.357 586.693ZM511.804 566.22L506.323 579.117L505.581 578.73H518.058L517.381 579.117L511.868 566.22H511.804ZM532.091 586.693C531.769 586.693 531.522 586.607 531.35 586.436C531.178 586.242 531.092 585.973 531.092 585.629V574.7L531.576 576.247L523.322 564.995C523.15 564.759 523.064 564.533 523.064 564.318C523.085 564.082 523.171 563.899 523.322 563.77C523.494 563.641 523.698 563.577 523.934 563.577C524.171 563.577 524.375 563.63 524.547 563.738C524.74 563.824 524.912 563.985 525.063 564.221L532.414 574.281H531.833L539.217 564.221C539.389 563.985 539.55 563.824 539.7 563.738C539.872 563.63 540.076 563.577 540.313 563.577C540.549 563.577 540.743 563.641 540.893 563.77C541.044 563.899 541.119 564.082 541.119 564.318C541.14 564.533 541.054 564.77 540.861 565.027L532.639 576.247L533.091 574.7V585.629C533.091 586.339 532.758 586.693 532.091 586.693Z" fill="white"/>
<rect x="562" y="559.5" width="2" height="32" fill="white"/>
<path d="M587.933 586.693C587.632 586.693 587.396 586.607 587.224 586.436C587.052 586.242 586.966 585.984 586.966 585.662V564.802C586.966 564.458 587.052 564.2 587.224 564.028C587.418 563.856 587.665 563.77 587.966 563.77H595.542C597.95 563.77 599.798 564.329 601.088 565.447C602.377 566.564 603.022 568.155 603.022 570.218C603.022 571.551 602.732 572.701 602.152 573.668C601.571 574.614 600.712 575.334 599.572 575.828C598.455 576.323 597.111 576.57 595.542 576.57L595.897 576.151H596.348C597.165 576.151 597.874 576.366 598.476 576.795C599.1 577.225 599.658 577.924 600.153 578.891L603.57 585.243C603.721 585.479 603.785 585.715 603.764 585.952C603.764 586.167 603.689 586.35 603.538 586.5C603.388 586.629 603.194 586.693 602.958 586.693C602.678 586.693 602.442 586.629 602.248 586.5C602.077 586.371 601.926 586.188 601.797 585.952L598.186 579.214C597.627 578.182 597.004 577.505 596.316 577.182C595.628 576.838 594.704 576.666 593.543 576.666H588.933V585.662C588.933 585.984 588.847 586.242 588.675 586.436C588.525 586.607 588.277 586.693 587.933 586.693ZM588.933 574.99H595.284C597.197 574.99 598.627 574.592 599.572 573.797C600.54 572.98 601.023 571.787 601.023 570.218C601.023 568.671 600.54 567.499 599.572 566.704C598.627 565.887 597.197 565.479 595.284 565.479H588.933V574.99ZM610.668 586.5C610.324 586.5 610.055 586.403 609.862 586.21C609.668 586.016 609.571 585.737 609.571 585.372V564.898C609.571 564.533 609.668 564.254 609.862 564.06C610.055 563.867 610.324 563.77 610.668 563.77H622.855C623.156 563.77 623.381 563.845 623.532 563.996C623.682 564.146 623.758 564.35 623.758 564.608C623.758 564.909 623.682 565.135 623.532 565.285C623.381 565.414 623.156 565.479 622.855 565.479H611.506V574.119H622.21C622.511 574.119 622.737 574.195 622.887 574.345C623.038 574.474 623.113 574.678 623.113 574.958C623.113 575.237 623.038 575.452 622.887 575.603C622.737 575.753 622.511 575.828 622.21 575.828H611.506V584.791H622.855C623.156 584.791 623.381 584.866 623.532 585.017C623.682 585.146 623.758 585.35 623.758 585.629C623.758 585.909 623.682 586.124 623.532 586.274C623.381 586.425 623.156 586.5 622.855 586.5H610.668ZM636.216 586.758C635.184 586.758 634.185 586.672 633.217 586.5C632.25 586.328 631.347 586.07 630.509 585.726C629.692 585.361 628.951 584.92 628.284 584.404C628.069 584.254 627.919 584.082 627.833 583.888C627.769 583.674 627.758 583.48 627.801 583.308C627.865 583.115 627.962 582.953 628.091 582.825C628.241 582.696 628.413 582.631 628.607 582.631C628.8 582.61 629.004 582.674 629.219 582.825C630.208 583.555 631.251 584.093 632.347 584.437C633.464 584.78 634.754 584.952 636.216 584.952C638.258 584.952 639.784 584.555 640.794 583.76C641.826 582.964 642.342 581.922 642.342 580.632C642.342 579.557 641.965 578.719 641.213 578.117C640.482 577.515 639.268 577.043 637.57 576.699L634.313 576.022C632.272 575.613 630.756 574.925 629.767 573.958C628.779 572.991 628.284 571.701 628.284 570.089C628.284 569.101 628.478 568.209 628.865 567.413C629.252 566.596 629.8 565.898 630.509 565.318C631.218 564.737 632.057 564.297 633.024 563.996C634.013 563.673 635.098 563.512 636.28 563.512C637.677 563.512 638.956 563.706 640.117 564.092C641.299 564.479 642.374 565.092 643.341 565.93C643.534 566.081 643.663 566.263 643.728 566.478C643.792 566.672 643.792 566.865 643.728 567.059C643.663 567.231 643.567 567.37 643.438 567.478C643.309 567.585 643.148 567.65 642.954 567.671C642.761 567.671 642.556 567.585 642.342 567.413C641.439 566.682 640.493 566.156 639.504 565.833C638.537 565.49 637.462 565.318 636.28 565.318C635.077 565.318 634.023 565.511 633.121 565.898C632.239 566.285 631.552 566.833 631.057 567.542C630.563 568.252 630.316 569.09 630.316 570.057C630.316 571.175 630.66 572.067 631.347 572.733C632.035 573.399 633.142 573.883 634.668 574.184L637.957 574.861C640.128 575.312 641.74 575.989 642.793 576.892C643.846 577.773 644.373 578.988 644.373 580.535C644.373 581.46 644.179 582.309 643.792 583.082C643.427 583.835 642.89 584.49 642.18 585.049C641.471 585.608 640.611 586.038 639.601 586.339C638.612 586.618 637.484 586.758 636.216 586.758ZM651.092 586.5C650.749 586.5 650.48 586.403 650.286 586.21C650.093 586.016 649.996 585.737 649.996 585.372V564.898C649.996 564.533 650.093 564.254 650.286 564.06C650.48 563.867 650.749 563.77 651.092 563.77H663.28C663.581 563.77 663.806 563.845 663.957 563.996C664.107 564.146 664.182 564.35 664.182 564.608C664.182 564.909 664.107 565.135 663.957 565.285C663.806 565.414 663.581 565.479 663.28 565.479H651.931V574.119H662.635C662.936 574.119 663.161 574.195 663.312 574.345C663.462 574.474 663.538 574.678 663.538 574.958C663.538 575.237 663.462 575.452 663.312 575.603C663.161 575.753 662.936 575.828 662.635 575.828H651.931V584.791H663.28C663.581 584.791 663.806 584.866 663.957 585.017C664.107 585.146 664.182 585.35 664.182 585.629C664.182 585.909 664.107 586.124 663.957 586.274C663.806 586.425 663.581 586.5 663.28 586.5H651.092ZM675.936 586.693C675.614 586.693 675.367 586.607 675.195 586.436C675.023 586.242 674.937 585.984 674.937 585.662V565.543H667.231C666.93 565.543 666.694 565.457 666.522 565.285C666.35 565.113 666.264 564.898 666.264 564.641C666.264 564.361 666.35 564.146 666.522 563.996C666.694 563.845 666.93 563.77 667.231 563.77H684.674C684.975 563.77 685.2 563.845 685.351 563.996C685.523 564.146 685.609 564.361 685.609 564.641C685.609 564.92 685.523 565.146 685.351 565.318C685.2 565.468 684.975 565.543 684.674 565.543H676.936V585.662C676.936 585.984 676.85 586.242 676.678 586.436C676.528 586.607 676.28 586.693 675.936 586.693Z" fill="white"/>
</svg>
