<svg width="1000" height="1000" viewBox="0 0 1000 1000" fill="none" xmlns="http://www.w3.org/2000/svg">
<path d="M891.009 490.367C890.127 490.367 890.127 489.737 891.009 489.737C896.128 489.737 896.922 489.107 897.628 477.767C898.069 471.557 897.981 459.587 897.981 451.307C897.981 429.167 897.187 428.807 892.863 428.807H891.274C890.568 428.807 890.568 427.997 891.274 427.997C893.745 427.997 899.746 428.267 901.07 428.267C902.305 428.267 928.957 427.997 932.134 427.997C933.723 427.997 935.752 428.087 936.282 428.357C936.723 428.627 937.517 435.197 938.841 444.917L939.194 448.157C939.371 448.787 938.488 448.697 938.312 448.157L937.87 444.917C936.194 434.837 929.31 429.167 919.249 429.077H908.042C903.982 429.077 904.688 429.167 904.688 451.307V457.517H912.013C923.044 457.517 925.427 453.377 925.427 447.167V445.277C925.427 444.557 926.31 444.557 926.31 445.277C926.31 447.887 925.868 456.707 925.868 458.057C925.868 459.317 926.31 469.037 926.31 470.387C926.31 471.107 925.427 471.107 925.427 470.387V469.037C925.427 462.827 923.044 458.597 912.013 458.597H904.688V475.877C904.688 482.807 904.335 487.577 903.982 489.107C906.541 489.107 917.926 489.377 920.661 489.377C930.899 489.377 938.135 480.377 939.282 471.197L939.812 466.427C939.9 465.887 940.871 465.887 940.783 466.517L940.253 471.377C938.665 486.047 938.135 489.467 937.517 490.007C937.164 490.367 931.869 490.367 925.78 490.367C919.603 490.367 903.453 490.097 903.453 490.097L891.009 490.367Z" fill="#3395A0"/>
<path d="M828.142 490.637C827.26 490.637 827.701 489.917 828.142 489.197L867.019 429.077H850.71C840.572 429.167 833.255 434.837 832.109 444.917L831.227 454.457C831.139 455.087 830.169 454.997 830.169 454.367L831.139 444.917C831.932 435.197 832.638 428.627 833.078 428.357C833.696 428.087 835.723 427.997 837.31 427.997C840.484 427.997 864.992 428.267 866.226 428.267C867.548 428.267 871.78 427.997 874.248 427.997C874.953 427.997 875.747 427.997 875.218 428.897L836.164 489.107C839.249 489.107 853.355 489.377 855.999 489.377C866.226 489.377 873.102 480.377 873.984 471.197L874.601 462.287C874.689 461.657 875.571 461.747 875.482 462.377L874.953 471.377C873.807 486.047 873.367 489.467 872.838 490.007C872.485 490.367 867.196 490.367 861.113 490.367C854.942 490.367 836.781 490.097 836.781 490.097L828.142 490.637Z" fill="#3395A0"/>
<path d="M763.573 490.367C762.69 490.367 762.69 489.737 763.573 489.737C768.691 489.737 769.486 489.107 770.192 477.767C770.633 471.557 770.545 459.587 770.545 451.307C770.545 429.167 769.75 428.807 765.426 428.807H763.838C763.132 428.807 763.132 427.997 763.838 427.997C766.309 427.997 772.31 428.267 773.633 428.267C774.869 428.267 801.521 427.997 804.698 427.997C806.286 427.997 808.316 428.087 808.845 428.357C809.287 428.627 810.081 435.197 811.405 444.917L811.758 448.157C811.934 448.787 811.052 448.697 810.875 448.157L810.434 444.917C808.757 434.837 801.873 429.167 791.813 429.077H780.605C776.546 429.077 777.252 429.167 777.252 451.307V457.517H784.576C795.608 457.517 797.99 453.377 797.99 447.167V445.277C797.99 444.557 798.873 444.557 798.873 445.277C798.873 447.887 798.432 456.707 798.432 458.057C798.432 459.317 798.873 469.037 798.873 470.387C798.873 471.107 797.99 471.107 797.99 470.387V469.037C797.99 462.827 795.608 458.597 784.576 458.597H777.252V475.877C777.252 482.807 776.899 487.577 776.546 489.107C779.105 489.107 790.489 489.377 793.225 489.377C803.462 489.377 810.699 480.377 811.846 471.197L812.375 466.427C812.464 465.887 813.434 465.887 813.346 466.517L812.817 471.377C811.228 486.047 810.699 489.467 810.081 490.007C809.728 490.367 804.433 490.367 798.344 490.367C792.166 490.367 776.016 490.097 776.016 490.097L763.573 490.367Z" fill="#3395A0"/>
<path d="M698.987 490.367C698.104 490.367 698.104 489.737 698.987 489.737C704.105 489.737 704.9 489.107 705.606 477.767C706.047 471.557 705.959 459.587 705.959 451.307C705.959 429.167 705.164 428.807 700.84 428.807H699.252C698.546 428.807 698.546 427.997 699.252 427.997C701.723 427.997 707.724 428.267 709.047 428.267C710.283 428.267 736.935 427.997 740.112 427.997C741.7 427.997 743.73 428.087 744.259 428.357C744.701 428.627 745.495 435.197 746.819 444.917L747.172 448.157C747.348 448.787 746.466 448.697 746.289 448.157L745.848 444.917C744.171 434.837 737.288 429.167 727.227 429.077H716.019C711.96 429.077 712.666 429.167 712.666 451.307V457.517H719.99C731.022 457.517 733.405 453.377 733.405 447.167V445.277C733.405 444.557 734.287 444.557 734.287 445.277C734.287 447.887 733.846 456.707 733.846 458.057C733.846 459.317 734.287 469.037 734.287 470.387C734.287 471.107 733.405 471.107 733.405 470.387V469.037C733.405 462.827 731.022 458.597 719.99 458.597H712.666V475.877C712.666 482.807 712.313 487.577 711.96 489.107C714.519 489.107 725.903 489.377 728.639 489.377C738.876 489.377 746.113 480.377 747.26 471.197L747.789 466.427C747.878 465.887 748.848 465.887 748.76 466.517L748.231 471.377C746.642 486.047 746.113 489.467 745.495 490.007C745.142 490.367 739.847 490.367 733.758 490.367C727.58 490.367 711.43 490.097 711.43 490.097L698.987 490.367Z" fill="#3395A0"/>
<path d="M635.196 490.367C634.476 490.367 634.476 489.557 635.196 489.557C637.446 489.557 638.796 489.467 639.336 489.377C640.596 488.117 640.956 486.137 641.136 481.277C641.316 476.327 641.406 467.417 641.406 463.277V451.307C641.406 429.167 640.956 428.807 636.546 428.807H634.926C634.206 428.807 634.206 427.997 634.926 427.997C637.446 427.997 643.566 428.267 644.916 428.267C646.176 428.267 654.456 427.997 655.986 427.997C671.466 427.997 679.026 433.307 679.026 442.847C679.026 450.857 669.306 455.807 659.856 457.337C667.506 457.517 670.656 460.307 676.506 472.097C683.976 487.937 685.686 489.557 691.176 489.557H691.806C692.616 489.557 692.706 490.367 691.806 490.367H688.566C685.416 490.367 683.706 490.727 682.356 490.727C680.376 490.727 679.206 490.187 677.766 488.567C675.876 486.407 673.356 482.177 670.296 474.977C663.546 459.407 660.936 458.147 651.936 457.967H648.246V467.057C648.246 489.197 648.696 489.557 653.106 489.557H654.906C655.626 489.557 655.626 490.367 654.906 490.367C652.386 490.367 646.356 490.187 645.096 490.187C643.746 490.187 635.916 490.367 635.196 490.367ZM648.246 442.397V457.067C650.046 456.977 652.296 456.977 655.806 456.977C662.736 456.977 671.016 452.927 671.016 442.757C671.016 433.397 666.516 428.807 655.266 428.807H651.756C648.426 428.807 648.246 429.167 648.246 442.397Z" fill="#3395A0"/>
<path d="M571.834 490.367C571.114 490.367 571.114 489.557 571.834 489.557H573.454C577.864 489.557 578.314 489.197 578.314 467.057V451.307C578.314 429.167 577.864 428.807 573.454 428.807H571.834C571.114 428.807 571.114 427.997 571.834 427.997C574.354 427.997 580.474 428.267 581.824 428.267C583.084 428.267 595.144 427.997 596.764 427.997C611.884 427.997 620.434 431.597 620.434 442.667C620.434 451.667 612.784 456.257 602.074 457.607C613.594 458.507 622.504 463.547 622.504 473.357C622.504 484.067 615.574 490.367 599.104 490.367C597.484 490.367 583.084 490.097 581.824 490.097C580.474 490.097 574.354 490.367 571.834 490.367ZM588.934 429.077C584.524 429.077 585.424 429.167 585.424 451.307V457.337H595.684C606.844 457.337 612.784 453.377 612.784 442.577C612.784 431.777 606.934 429.077 595.414 429.077H588.934ZM590.104 489.557H597.754C609.724 489.557 614.854 484.247 614.854 473.357C614.854 463.367 609.814 458.327 596.854 458.327H585.424V467.057C585.424 489.197 585.694 489.557 590.104 489.557Z" fill="#3395A0"/>
<path d="M473.284 490.637C472.384 490.637 472.384 490.007 473.284 490.007C478.504 490.007 479.314 489.377 480.034 478.037C480.484 471.827 480.394 459.857 480.394 451.577C480.394 429.437 479.584 429.077 475.174 429.077H473.554C472.834 429.077 472.834 428.267 473.554 428.267C476.074 428.267 482.194 428.537 483.544 428.537C484.804 428.537 511.984 428.267 515.224 428.267C516.844 428.267 518.914 428.357 519.454 428.627C519.904 428.897 520.714 435.467 522.064 445.187L522.424 448.427C522.604 449.057 521.704 448.967 521.524 448.427L521.074 445.187C519.364 435.107 512.344 429.437 502.084 429.347H490.654C486.514 429.347 487.234 429.437 487.234 451.577V457.787H494.704C505.954 457.787 508.384 453.647 508.384 447.437V445.547C508.384 444.827 509.284 444.827 509.284 445.547C509.284 448.157 508.834 456.977 508.834 458.327C508.834 459.587 509.284 469.307 509.284 470.657C509.284 471.377 508.384 471.377 508.384 470.657V469.307C508.384 463.097 505.954 458.867 494.704 458.867H487.234V476.147C487.234 483.077 486.874 487.847 486.514 489.377C489.124 489.377 500.734 489.647 503.524 489.647C513.964 489.647 521.344 480.647 522.514 471.467L523.054 466.697C523.144 466.157 524.134 466.157 524.044 466.787L523.504 471.647C521.884 486.317 521.344 489.737 520.714 490.277C520.354 490.637 514.954 490.637 508.744 490.637C502.444 490.637 485.974 490.367 485.974 490.367L473.284 490.637Z" fill="#3395A0"/>
<path d="M456.795 452.387V452.657C456.795 453.827 455.895 453.827 455.895 452.657V452.387C455.895 438.707 453.465 428.267 436.725 428.267C425.745 428.267 421.335 433.397 421.335 440.237C421.335 448.877 430.605 452.657 439.875 456.527C449.235 460.487 458.685 464.537 458.685 474.257C458.685 484.607 449.865 491.537 439.065 491.537C429.345 491.537 424.485 490.547 418.095 488.837C417.285 488.657 417.195 488.477 417.195 487.937C417.195 483.797 417.105 469.307 417.105 464.897C417.105 463.637 418.095 463.637 418.095 464.897C418.095 481.637 424.125 490.637 439.065 490.637C448.965 490.637 453.285 485.597 453.285 478.487C453.285 469.667 444.285 466.067 435.105 462.197C425.475 458.237 415.665 454.007 415.665 444.467C415.665 433.757 425.295 427.367 436.725 427.367C445.725 427.367 451.215 428.537 456.345 429.707C456.975 429.887 457.245 429.977 457.335 430.697C457.515 432.497 456.795 438.347 456.795 452.387Z" fill="#3395A0"/>
<path d="M384.062 451.577C384.062 429.437 383.612 429.077 379.202 429.077H377.312C376.592 429.077 376.592 428.267 377.312 428.267C379.832 428.267 386.312 428.537 387.572 428.537C388.922 428.537 395.222 428.267 397.742 428.267C398.462 428.267 398.462 429.077 397.742 429.077H395.852C391.442 429.077 390.992 429.437 390.992 451.577V467.327C390.992 489.467 391.442 489.827 395.852 489.827H397.742C398.462 489.827 398.462 490.637 397.742 490.637C395.222 490.637 388.922 490.367 387.572 490.367C386.312 490.367 379.832 490.637 377.312 490.637C376.592 490.637 376.592 489.827 377.312 489.827H379.202C383.612 489.827 384.062 489.467 384.062 467.327V451.577Z" fill="#3395A0"/>
<path d="M307.717 490.637C306.817 490.637 306.817 490.007 307.717 490.007C312.937 490.007 314.017 489.377 314.467 478.037C314.737 471.827 314.557 459.407 314.557 455.267C314.557 451.127 314.287 442.217 314.287 437.267C314.287 429.167 314.107 429.077 308.347 429.077C307.627 429.077 307.627 428.267 308.347 428.267C309.067 428.267 317.977 428.447 319.327 428.447C320.677 428.447 331.387 428.267 333.997 428.267C352.537 428.267 368.377 440.687 368.377 459.497C368.377 477.947 353.707 490.637 334.357 490.637C331.747 490.637 323.467 490.367 320.407 490.367C315.277 490.367 311.047 490.547 307.717 490.637ZM360.367 459.497C360.367 440.957 349.927 429.077 333.817 429.077H327.877C321.757 429.077 321.667 429.527 321.667 451.577V476.147C321.667 483.077 321.307 487.847 320.947 489.377C323.107 489.377 330.487 489.737 334.537 489.737C350.827 489.737 360.367 477.947 360.367 459.497Z" fill="#3395A0"/>
<path d="M269.082 468.587C264.672 468.587 255.672 468.317 252.972 468.227L251.442 472.097C249.912 475.877 248.202 481.547 248.202 485.507C248.202 488.387 250.002 489.917 253.242 489.917C253.962 489.917 255.402 489.647 255.762 489.647C256.212 489.647 256.392 489.827 256.392 490.097C256.392 490.367 256.212 490.637 255.312 490.637C253.692 490.637 246.582 490.457 245.052 490.457C243.882 490.457 239.832 490.637 237.582 490.637C237.222 490.637 237.042 490.457 237.042 490.187C237.042 490.007 237.312 489.827 237.582 489.827H237.942C240.462 489.827 242.532 487.937 244.422 484.427C246.672 480.557 248.922 475.427 250.362 471.647L267.732 428.267C267.822 428.087 267.912 427.997 268.362 427.997H269.262C269.802 427.997 270.072 428.087 270.162 428.267L286.542 467.327C295.452 488.387 296.802 489.827 301.122 489.827H301.842C302.292 489.827 302.472 490.007 302.472 490.187C302.472 490.457 302.292 490.637 301.932 490.637C299.322 490.637 294.192 490.367 292.842 490.367C291.492 490.367 284.562 490.637 281.952 490.637C281.232 490.637 280.962 489.827 281.682 489.827H283.572C287.532 489.827 288.162 488.207 279.612 468.317L269.082 468.587ZM279.162 467.327L265.752 435.917L253.242 467.507L268.542 467.417H279.162V467.327Z" fill="#3395A0"/>
<path d="M176.852 490.637C176.132 490.637 176.132 489.827 176.852 489.827C179.102 489.827 180.452 489.737 180.992 489.647C182.252 488.387 182.612 486.407 182.792 481.547C182.972 476.597 183.062 467.687 183.062 463.547V451.577C183.062 429.437 182.612 429.077 178.202 429.077H176.582C175.862 429.077 175.862 428.267 176.582 428.267C179.102 428.267 185.222 428.537 186.572 428.537C187.832 428.537 196.112 428.267 197.642 428.267C213.122 428.267 220.682 433.577 220.682 443.117C220.682 451.127 210.962 456.077 201.512 457.607C209.162 457.787 212.312 460.577 218.162 472.367C225.632 488.207 227.342 489.827 232.832 489.827H233.462C234.272 489.827 234.362 490.637 233.462 490.637H230.222C227.072 490.637 225.362 490.997 224.012 490.997C222.032 490.997 220.862 490.457 219.422 488.837C217.532 486.677 215.012 482.447 211.952 475.247C205.202 459.677 202.592 458.417 193.592 458.237H189.902V467.327C189.902 489.467 190.352 489.827 194.762 489.827H196.562C197.282 489.827 197.282 490.637 196.562 490.637C194.042 490.637 188.012 490.457 186.752 490.457C185.402 490.457 177.572 490.637 176.852 490.637ZM189.902 442.667V457.337C191.702 457.247 193.952 457.247 197.462 457.247C204.392 457.247 212.672 453.197 212.672 443.027C212.672 433.667 208.172 429.077 196.922 429.077H193.412C190.082 429.077 189.902 429.437 189.902 442.667Z" fill="#3395A0"/>
<path d="M139.082 468.587C134.672 468.587 125.672 468.317 122.972 468.227L121.442 472.097C119.912 475.877 118.202 481.547 118.202 485.507C118.202 488.387 120.002 489.917 123.242 489.917C123.962 489.917 125.402 489.647 125.762 489.647C126.212 489.647 126.392 489.827 126.392 490.097C126.392 490.367 126.212 490.637 125.312 490.637C123.692 490.637 116.582 490.457 115.052 490.457C113.882 490.457 109.832 490.637 107.582 490.637C107.222 490.637 107.042 490.457 107.042 490.187C107.042 490.007 107.312 489.827 107.582 489.827H107.942C110.462 489.827 112.532 487.937 114.422 484.427C116.672 480.557 118.922 475.427 120.362 471.647L137.732 428.267C137.822 428.087 137.912 427.997 138.362 427.997H139.262C139.802 427.997 140.072 428.087 140.162 428.267L156.542 467.327C165.452 488.387 166.802 489.827 171.122 489.827H171.842C172.292 489.827 172.472 490.007 172.472 490.187C172.472 490.457 172.292 490.637 171.932 490.637C169.322 490.637 164.192 490.367 162.842 490.367C161.492 490.367 154.562 490.637 151.952 490.637C151.232 490.637 150.962 489.827 151.682 489.827H153.572C157.532 489.827 158.162 488.207 149.612 468.317L139.082 468.587ZM149.162 467.327L135.752 435.917L123.242 467.507L138.542 467.417H149.162V467.327Z" fill="#3395A0"/>
<path d="M60.0217 490.367C59.3017 490.367 59.3017 489.557 60.0217 489.557C61.9117 489.557 63.2617 489.557 64.1617 489.377C65.4217 488.117 65.7817 486.137 65.9617 481.277C66.1417 476.327 66.2317 467.417 66.2317 463.277V451.307C66.2317 429.167 65.7817 428.807 61.3717 428.807H59.7517C59.0317 428.807 59.0317 427.997 59.7517 427.997C62.2717 427.997 68.3917 428.267 69.7417 428.267C71.0017 428.267 84.2317 427.997 85.8517 427.997C100.432 427.997 109.612 434.117 109.612 445.277C109.612 456.347 100.072 463.817 86.3917 463.817C81.9817 463.727 77.4817 463.727 73.0717 463.727V466.967C73.0717 489.017 74.1517 489.557 77.3017 489.557H81.8917C82.6117 489.557 82.6117 490.367 81.8917 490.367C79.2817 490.367 72.3517 490.187 71.0017 490.187C69.6517 490.187 60.7417 490.367 60.0217 490.367ZM76.5817 428.897C73.2517 428.897 73.0717 429.167 73.0717 442.397V462.827H84.4117C95.5717 462.827 101.872 455.987 101.872 445.187C101.872 434.297 96.0217 428.897 84.5017 428.897H76.5817Z" fill="#3395A0"/>
<path d="M287.942 556.585V537.995H295.482C299.148 537.995 301.618 539.971 301.618 543.273C301.618 545.951 300.344 547.433 298.29 547.953V548.005C302.424 548.811 300.916 556.117 301.878 556.429V556.585H299.356C298.55 555.805 300.318 549.071 295.612 549.071H290.282V556.585H287.942ZM290.282 540.075V546.991H294.936C296.86 546.991 299.278 546.757 299.278 543.533C299.278 540.309 296.86 540.075 294.936 540.075H290.282ZM315.055 545.925H324.597V548.005H315.055V554.505H326.157V556.585H312.715V537.995H325.845V540.075H315.055V545.925ZM337.209 537.995H339.549V554.505H349.299V556.585H337.209V537.995ZM370.689 551.931H362.499L360.861 556.585H358.443L365.307 537.995H367.907L374.745 556.585H372.327L370.689 551.931ZM363.279 549.851H369.935L366.633 540.153H366.581L363.279 549.851ZM390.045 547.095L384.143 537.995H386.743L391.319 545.431H391.345L395.947 537.995H398.547L392.645 547.043L398.989 556.585H396.129L391.345 548.759H391.319L386.561 556.585H383.701L390.045 547.095Z" fill="#69443C"/>
<rect x="427.2" y="534.085" width="2.3" height="26" fill="#69443C"/>
<path d="M458.242 556.585V537.995H465.626C469.032 537.995 471.658 539.503 471.658 543.403C471.658 547.303 469.032 548.811 465.626 548.811H460.582V556.585H458.242ZM460.582 540.075V546.731H465.886C468.2 546.731 469.318 545.665 469.318 543.403C469.318 541.141 468.2 540.075 465.886 540.075H460.582ZM482.228 537.995H484.568V554.505H494.318V556.585H482.228V537.995ZM515.709 551.931H507.518L505.88 556.585H503.462L510.326 537.995H512.926L519.765 556.585H517.347L515.709 551.931ZM508.298 549.851H514.954L511.652 540.153H511.6L508.298 549.851ZM526.661 537.995H529.183L534.565 547.095H534.617L540.025 537.995H542.547L535.761 548.967V556.585H533.421V548.967L526.661 537.995Z" fill="#69443C"/>
<rect x="570.5" y="534.085" width="2.3" height="26" fill="#69443C"/>
<path d="M601.542 556.585V537.995H609.082C612.748 537.995 615.218 539.971 615.218 543.273C615.218 545.951 613.944 547.433 611.89 547.953V548.005C616.024 548.811 614.516 556.117 615.478 556.429V556.585H612.956C612.15 555.805 613.918 549.071 609.212 549.071H603.882V556.585H601.542ZM603.882 540.075V546.991H608.536C610.46 546.991 612.878 546.757 612.878 543.533C612.878 540.309 610.46 540.075 608.536 540.075H603.882ZM628.655 545.925H638.197V548.005H628.655V554.505H639.757V556.585H626.315V537.995H639.445V540.075H628.655V545.925ZM657.237 545.743C661.423 546.783 664.153 547.485 664.153 551.723C664.153 554.427 662.151 556.949 657.445 556.949C653.051 556.949 649.645 554.609 649.385 550.345H651.725C651.985 552.893 653.545 554.869 657.445 554.869C660.669 554.869 661.813 553.387 661.813 551.723C661.813 549.175 660.435 548.707 656.275 547.745C653.493 547.095 650.165 546.133 650.165 542.519C650.165 539.581 652.427 537.631 656.535 537.631C660.487 537.631 663.243 539.659 663.555 543.507H661.215C660.877 541.011 659.473 539.711 656.535 539.711C653.909 539.711 652.505 540.725 652.505 542.259C652.505 544.729 654.507 545.067 657.237 545.743ZM677.49 545.925H687.032V548.005H677.49V554.505H688.592V556.585H675.15V537.995H688.28V540.075H677.49V545.925ZM704.662 556.585V540.075H698.474V537.995H713.19V540.075H707.002V556.585H704.662Z" fill="#69443C"/>
</svg>
